<svg xmlns="http://www.w3.org/2000/svg" width="83.911" height="59" viewBox="0 0 83.911 59">
  <g id="Group_11315" data-name="Group 11315" transform="translate(-1054 -2300)">
    <g id="cloud-computing" transform="translate(1054 2224)">
      <g id="Group_11313" data-name="Group 11313" transform="translate(0 76)">
        <path id="Path_11241" data-name="Path 11241" d="M73.55,102.14a22.129,22.129,0,0,0-40.736-15.4,17.259,17.259,0,0,0-15.368,2.126A17.07,17.07,0,0,0,10,102.308,17.126,17.126,0,0,0,17.208,135H66.539a17.127,17.127,0,0,0,7.011-32.86Zm-7.011,27.943H17.208a12.221,12.221,0,0,1-3.916-23.82l1.745-.618-.112-1.848a12.209,12.209,0,0,1,5.309-10.881,12.7,12.7,0,0,1,12.709-.861l2.214,1,1.028-2.2A17.211,17.211,0,0,1,69,98.125a21.215,21.215,0,0,1-1.247,6.756A20.7,20.7,0,0,0,70.5,106.22a12.223,12.223,0,0,1-3.958,23.863Z" transform="translate(0 -76)"/>
      </g>
    </g>
    <g id="wi-fi" transform="translate(1082.767 2321.231)">
      <g id="Group_11314" data-name="Group 11314" transform="translate(0 2.569)">
        <circle id="Ellipse_19" data-name="Ellipse 19" cx="3.182" cy="3.182" r="3.182" transform="translate(10.5 14.132)" fill="#07a9b1"/>
        <path id="Path_11242" data-name="Path 11242" d="M20.121,10.65c-.047-.049-.1-.092-.146-.136l-.143-.135a.7.7,0,0,0-.08-.067,10.379,10.379,0,0,0-14.337.337l-.46.462-.637.637a2,2,0,0,0,2.825,2.825l1.1-1.1a6.412,6.412,0,0,1,9.054,0l.793.769a1.982,1.982,0,0,0,3.376-1.4,1.945,1.945,0,0,0-.576-1.394Z" transform="translate(1.164 -1.002)" fill="#07a9b1"/>
        <path id="Path_11243" data-name="Path 11243" d="M26.7,8.284l-.661-.661s0-.007-.009-.008l-.522-.525a1.882,1.882,0,0,0-.3-.237,17.32,17.32,0,0,0-23.4.539c-.031.029-.067.049-.1.08L.529,8.667a1.822,1.822,0,0,0,2.577,2.576L4.3,10.051a.155.155,0,0,1,.022-.026,13.673,13.673,0,0,1,18.869-.1l.939.94A1.822,1.822,0,0,0,26.7,8.284Z" transform="translate(0 -2.569)" fill="#07a9b1"/>
      </g>
    </g>
  </g>
</svg>
