<svg xmlns="http://www.w3.org/2000/svg" width="25" height="29.852" viewBox="0 0 25 29.852">
  <g id="Group_11736" data-name="Group 11736" transform="translate(-1068.837 -518.119)">
    <path id="Path_13169" data-name="Path 13169" d="M1058.362,510.822a9.807,9.807,0,0,0-9.8,9.8c0,4.143,6.421,10.76,9.8,13.788,3.375-3.03,9.8-9.651,9.8-13.788a9.808,9.808,0,0,0-9.8-9.8m0,27.149-.867-.743c-1.2-1-11.632-10.015-11.632-16.609a12.5,12.5,0,0,1,25,0c0,6.594-10.438,15.608-11.628,16.614Z" transform="translate(22.975 10)"/>
    <path id="Path_13170" data-name="Path 13170" d="M1060.263,519.666a2.854,2.854,0,1,0,2.854,2.854,2.854,2.854,0,0,0-2.854-2.854m0,8.563a5.708,5.708,0,1,1,5.709-5.709,5.709,5.709,0,0,1-5.709,5.709" transform="translate(21.074 8.282)"/>
  </g>
</svg>
