<svg id="fi-br-download" xmlns="http://www.w3.org/2000/svg" width="22" height="22" viewBox="0 0 22 22">
  <path id="Path_13155" data-name="Path 13155" d="M8.548,16.225a4.125,4.125,0,0,0,5.834,0h0l2.944-2.944A1.375,1.375,0,0,0,15.416,11.3l-.034.034-2.551,2.55L12.81,1.375a1.375,1.375,0,0,0-2.75,0l.019,12.491L7.548,11.336A1.375,1.375,0,0,0,5.6,13.28Z" transform="translate(-0.435)" fill="#fff"/>
  <path id="Path_13156" data-name="Path 13156" d="M20.625,14.5a1.375,1.375,0,0,0-1.375,1.375v4.208a.376.376,0,0,1-.375.375H3.125a.376.376,0,0,1-.375-.375V15.875a1.375,1.375,0,0,0-2.75,0v4.208a3.129,3.129,0,0,0,3.125,3.125h15.75A3.129,3.129,0,0,0,22,20.083V15.875A1.375,1.375,0,0,0,20.625,14.5Z" transform="translate(0 -1.208)" fill="#fff"/>
</svg>
