<svg xmlns="http://www.w3.org/2000/svg" width="25" height="25" viewBox="0 0 25 25">
  <path id="Path_13172" data-name="Path 13172" d="M1064.915,621.25v-2.083a6.256,6.256,0,0,1,6.25,6.25h-2.083a4.167,4.167,0,0,0-4.167-4.167m0-4.167V615a10.428,10.428,0,0,1,10.417,10.417h-2.083a8.343,8.343,0,0,0-8.333-8.333m5.512,19.656a4.067,4.067,0,0,1-2.908,1.177c-6.493,0-15.1-8.611-15.1-15.1a4.067,4.067,0,0,1,1.177-2.909l1.83-1.83,3.58,3.58-3.057,3.057.255.64a14.967,14.967,0,0,0,8.8,8.787l.631.241,3.048-3.049,3.58,3.58Zm-5.3-4.8a12.636,12.636,0,0,1-6.722-6.737l3.542-3.548-6.521-6.526-3.3,3.3a6.143,6.143,0,0,0-1.787,4.383c0,7.55,9.637,17.187,17.187,17.187a6.132,6.132,0,0,0,4.382-1.788l3.3-3.3-6.526-6.526Z" transform="translate(-1050.332 -615)"/>
</svg>
