<svg xmlns="http://www.w3.org/2000/svg" width="25" height="22.917" viewBox="0 0 25 22.917">
  <path id="Path_13171" data-name="Path 13171" d="M1052.415,690.833V676.771l6.733,6.729a5.216,5.216,0,0,0,7.367,0l6.733-6.729v14.063Zm1.042-18.75h18.75a1.042,1.042,0,0,1,1.042,1.042v.695l-8.206,8.207a3.132,3.132,0,0,1-4.421,0l-8.206-8.207v-.695a1.042,1.042,0,0,1,1.042-1.042m18.75-2.083h-18.75a3.125,3.125,0,0,0-3.125,3.125v19.792h25V673.125a3.125,3.125,0,0,0-3.125-3.125" transform="translate(-1050.332 -670)"/>
</svg>
