<svg xmlns="http://www.w3.org/2000/svg" width="232" height="51.967" viewBox="0 0 232 51.967">
  <g id="Group_11294" data-name="Group 11294" transform="translate(-153.335 -240.945)">
    <path id="Path_11228" data-name="Path 11228" d="M270.465,248.406a24.856,24.856,0,0,0-5.895,9.669,16.7,16.7,0,0,0-5.539-12.119q-5.568-5.011-14.1-5.011H224.14v19.66a24.8,24.8,0,0,0-6.58-12.2,24.066,24.066,0,0,0-18-7.461H179.495v14.4h20.062a9.637,9.637,0,0,1,7.461,3.229,13.358,13.358,0,0,1,0,16.7,9.637,9.637,0,0,1-7.461,3.229H179.495v14.4h20.062a24.064,24.064,0,0,0,18-7.461,24.8,24.8,0,0,0,6.58-12.2v19.659h14.848V276.58H242.7l8.241,16.332h15.887l-10.244-19.376a16.534,16.534,0,0,0,5.9-6.013,15.843,15.843,0,0,0,.762-1.543c-.009.315-.02.629-.02.948a25.557,25.557,0,0,0,7.238,18.523,24.066,24.066,0,0,0,18,7.461H308.53v-14.4H288.468a9.638,9.638,0,0,1-7.461-3.229,13.36,13.36,0,0,1,0-16.7,9.638,9.638,0,0,1,7.461-3.229H308.53v-14.4H288.468A24.063,24.063,0,0,0,270.465,248.406Zm-22.086,14.662a5.079,5.079,0,0,1-3.749,1.188h-5.642V254.6h5.642a5.238,5.238,0,0,1,3.749,1.3,4.72,4.72,0,0,1,1.373,3.6A4.6,4.6,0,0,1,248.379,263.068Z" transform="translate(-10.174)" fill="#00728a"/>
    <rect id="Rectangle_1238" data-name="Rectangle 1238" width="15.986" height="23.162" transform="translate(153.335 255.347)" fill="#00728a"/>
    <path id="Path_11229" data-name="Path 11229" d="M398.333,272.374h4.73v14.292h3.473V272.374h4.756v-3.321H398.333Z" transform="translate(-95.281 -10.931)" fill="#00728a"/>
    <path id="Path_11230" data-name="Path 11230" d="M438.535,279.394H445.2v-3.271h-6.668v-3.749h7.3v-3.321h-10.77v17.614h10.9v-3.321h-7.423Z" transform="translate(-109.565 -10.931)" fill="#00728a"/>
    <path id="Path_11231" data-name="Path 11231" d="M476.875,271.848a5.534,5.534,0,0,1,2.718.667,4.654,4.654,0,0,1,1.861,1.849l2.995-1.736a8.208,8.208,0,0,0-3.158-3.032,8.983,8.983,0,0,0-4.416-1.12,8.835,8.835,0,0,0-6.567,2.63,9.506,9.506,0,0,0,0,13.047,8.81,8.81,0,0,0,6.567,2.642,8.958,8.958,0,0,0,4.429-1.12,8.22,8.22,0,0,0,3.145-3.032l-2.995-1.736a4.5,4.5,0,0,1-1.849,1.824,5.6,5.6,0,0,1-2.73.667,5.521,5.521,0,0,1-4.139-1.611,6.3,6.3,0,0,1,0-8.329A5.525,5.525,0,0,1,476.875,271.848Z" transform="translate(-122.264 -10.707)" fill="#00728a"/>
    <path id="Path_11232" data-name="Path 11232" d="M520.965,269.053v6.995h-6.542v-6.995h-3.473v17.614h3.473v-7.3h6.542v7.3h3.447V269.053Z" transform="translate(-139.078 -10.931)" fill="#00728a"/>
  </g>
</svg>
