<svg xmlns="http://www.w3.org/2000/svg" width="88.542" height="96.651" viewBox="0 0 88.542 96.651">
  <g id="Group_11484" data-name="Group 11484" transform="translate(0)">
    <path id="Path_11418" data-name="Path 11418" d="M142.439,35.374a44.3,44.3,0,0,0,2.951,6.683l2.345-1.28a41.545,41.545,0,0,1-2.771-6.275Z" transform="translate(-140.025 31.606)" fill="#00728a"/>
    <path id="Path_11419" data-name="Path 11419" d="M148.179,40.772l-2.108,1.646a44.269,44.269,0,0,0,4.959,5.369l1.807-1.968a41.453,41.453,0,0,1-4.658-5.047" transform="translate(-136.698 37.35)" fill="#00728a"/>
    <path id="Path_11420" data-name="Path 11420" d="M145.783,20.819l-2.529-.858a44.279,44.279,0,0,0-1.772,7.088l2.638.433a41.518,41.518,0,0,1,1.663-6.662" transform="translate(-140.902 18.286)" fill="#00728a"/>
    <path id="Path_11421" data-name="Path 11421" d="M151.67,47.844a43.939,43.939,0,0,0,6.43,3.476l1.073-2.447a41.682,41.682,0,0,1-6.041-3.267Z" transform="translate(-131.568 41.778)" fill="#00728a"/>
    <path id="Path_11422" data-name="Path 11422" d="M166.1,49.588l.22,2.665a44.691,44.691,0,0,0,7.212-1.2l-.659-2.592a41.62,41.62,0,0,1-6.773,1.13" transform="translate(-118.352 44.391)" fill="#00728a"/>
    <path id="Path_11423" data-name="Path 11423" d="M158.638,51.061a44.363,44.363,0,0,0,7.21,1.188l.217-2.665a41.4,41.4,0,0,1-6.777-1.115Z" transform="translate(-125.185 44.401)" fill="#00728a"/>
    <path id="Path_11424" data-name="Path 11424" d="M150.035,14.9l-2.113-1.638a44.708,44.708,0,0,0-3.989,6.126l2.355,1.268a41.573,41.573,0,0,1,3.748-5.756" transform="translate(-138.657 12.152)" fill="#00728a"/>
    <path id="Path_11425" data-name="Path 11425" d="M143.852,27.459l-2.673,0a44.327,44.327,0,0,0,.611,7.281l2.635-.443a42.148,42.148,0,0,1-.573-6.842" transform="translate(-141.179 25.154)" fill="#00728a"/>
    <path id="Path_11426" data-name="Path 11426" d="M189.136,26.9a43.823,43.823,0,0,0-1.818-7.08l-2.523.879a41.271,41.271,0,0,1,1.707,6.647Z" transform="translate(-101.225 18.158)" fill="#00728a"/>
    <path id="Path_11427" data-name="Path 11427" d="M177.55,8.024,176.1,10.268a41.781,41.781,0,0,1,5.43,4.2l1.8-1.97a44.509,44.509,0,0,0-5.781-4.474" transform="translate(-109.192 7.351)" fill="#00728a"/>
    <path id="Path_11428" data-name="Path 11428" d="M173.021,48.858,174.1,51.3a44.145,44.145,0,0,0,6.421-3.485l-1.466-2.236a41.42,41.42,0,0,1-6.03,3.275" transform="translate(-112.01 41.757)" fill="#00728a"/>
    <path id="Path_11429" data-name="Path 11429" d="M178.994,45.8l1.813,1.964a44.657,44.657,0,0,0,4.945-5.376l-2.108-1.644a42.078,42.078,0,0,1-4.65,5.057" transform="translate(-106.538 37.321)" fill="#00728a"/>
    <path id="Path_11430" data-name="Path 11430" d="M183.384,40.746l2.349,1.276a44.017,44.017,0,0,0,2.941-6.7l-2.531-.866a41.045,41.045,0,0,1-2.759,6.287" transform="translate(-102.516 31.567)" fill="#00728a"/>
    <path id="Path_11431" data-name="Path 11431" d="M155.812,10.335,154.342,8.1a44.581,44.581,0,0,0-5.752,4.507l1.818,1.96a41.656,41.656,0,0,1,5.4-4.235" transform="translate(-134.39 7.423)" fill="#00728a"/>
    <path id="Path_11432" data-name="Path 11432" d="M186.261,27.5a42.126,42.126,0,0,1-.561,6.844l2.638.435a44.761,44.761,0,0,0,.6-7.241l0-.222Z" transform="translate(-100.395 25.024)" fill="#00728a"/>
    <path id="Path_11433" data-name="Path 11433" d="M183.471,13.154l-2.1,1.65a41.687,41.687,0,0,1,3.782,5.733l2.347-1.286a44.656,44.656,0,0,0-4.026-6.1" transform="translate(-104.364 12.05)" fill="#00728a"/>
    <path id="Path_11434" data-name="Path 11434" d="M176.326,8.147A8.147,8.147,0,1,1,168.179,0a8.148,8.148,0,0,1,8.147,8.147" transform="translate(-123.908)" fill="#00728a"/>
    <path id="Path_11452" data-name="Path 11452" d="M196.716,38.616h-27.89a7.3,7.3,0,0,1,0-14.6h27.89a7.3,7.3,0,1,1,0,14.6" transform="translate(-122.539 22.001)" fill="#00728a"/>
    <path id="Path_11453" data-name="Path 11453" d="M175.269,59.231a21.246,21.246,0,1,1,21.247-21.245,21.271,21.271,0,0,1-21.247,21.245" transform="translate(-129.414 15.333)" fill="#fff"/>
    <path id="Path_11454" data-name="Path 11454" d="M175.5,17.446A20.767,20.767,0,1,1,154.73,38.212,20.791,20.791,0,0,1,175.5,17.446m0-.958a21.725,21.725,0,1,0,21.726,21.724A21.726,21.726,0,0,0,175.5,16.488" transform="translate(-129.643 15.104)" fill="#00728a"/>
    <path id="Path_11455" data-name="Path 11455" d="M195.02,38.212A21.725,21.725,0,1,1,173.3,16.488,21.724,21.724,0,0,1,195.02,38.212" transform="translate(-131.661 15.104)" fill="#00728a"/>
    <path id="Path_11456" data-name="Path 11456" d="M182.131,34.043a13.005,13.005,0,1,1-13-13,13.006,13.006,0,0,1,13,13" transform="translate(-127.492 19.273)" fill="#fff"/>
    <path id="Path_11457" data-name="Path 11457" d="M180.057,38.616H152.164a7.3,7.3,0,0,1,0-14.6h27.892a7.3,7.3,0,1,1,0,14.6" transform="translate(-137.802 22.001)" fill="#00728a"/>
    <path id="Path_11458" data-name="Path 11458" d="M151.938,37.909a6.82,6.82,0,1,1,6.821-6.821,6.829,6.829,0,0,1-6.821,6.821" transform="translate(-137.572 22.231)" fill="#fff"/>
    <path id="Path_11459" data-name="Path 11459" d="M152.166,24.975a6.341,6.341,0,1,1-6.342,6.342,6.35,6.35,0,0,1,6.342-6.342m0-.958a7.3,7.3,0,1,0,7.3,7.3,7.3,7.3,0,0,0-7.3-7.3" transform="translate(-137.802 22.001)" fill="#00728a"/>
  </g>
</svg>
