<svg id="facebook" xmlns="http://www.w3.org/2000/svg" width="26.477" height="26.477" viewBox="0 0 26.477 26.477">
  <g id="Group_87" data-name="Group 87">
    <path id="Path_72" data-name="Path 72" d="M23.375,0H3.1A3.106,3.106,0,0,0,0,3.1V23.375a3.106,3.106,0,0,0,3.1,3.1H23.375a3.106,3.106,0,0,0,3.1-3.1V3.1A3.106,3.106,0,0,0,23.375,0Zm1.034,23.375a1.035,1.035,0,0,1-1.034,1.034h-5.9V15.98h3.2l.528-3.206H17.479V10.55A1.525,1.525,0,0,1,19.031,9h2.12V5.792h-2.12a4.757,4.757,0,0,0-4.757,4.767v2.215h-3.1V15.98h3.1v8.429H3.1a1.035,1.035,0,0,1-1.034-1.034V3.1A1.035,1.035,0,0,1,3.1,2.069H23.375A1.035,1.035,0,0,1,24.409,3.1Z"/>
  </g>
</svg>
