<svg xmlns="http://www.w3.org/2000/svg" width="76.721" height="76.721" viewBox="0 0 76.721 76.721">
  <path id="fi-rs-phone-call" d="M45.393,51.981A38.785,38.785,0,0,1,24.765,31.305L35.634,20.417,15.623.39,5.486,10.523A18.86,18.86,0,0,0,0,23.975C0,47.145,29.576,76.72,52.746,76.72a18.825,18.825,0,0,0,13.448-5.486L76.331,61.1,56.3,41.071ZM61.671,66.715a12.467,12.467,0,0,1-8.925,3.612C32.821,70.327,6.394,43.9,6.394,23.975a12.489,12.489,0,0,1,3.612-8.928L15.623,9.43,26.61,20.417,17.227,29.8l.783,1.963a45.943,45.943,0,0,0,27,26.967l1.937.738L56.3,50.111,67.291,61.1ZM44.754,6.393V0A32,32,0,0,1,76.721,31.967H70.328A25.6,25.6,0,0,0,44.754,6.393Zm0,12.787V12.787a19.2,19.2,0,0,1,19.18,19.18H57.541A12.787,12.787,0,0,0,44.754,19.18Z" transform="translate(0)" fill="#fff"/>
</svg>
