<svg id="Group_11485" data-name="Group 11485" xmlns="http://www.w3.org/2000/svg" width="88.542" height="96.651" viewBox="0 0 88.542 96.651">
  <path id="Path_11435" data-name="Path 11435" d="M208.114,35.374a44.3,44.3,0,0,0,2.951,6.683l2.347-1.28a41.554,41.554,0,0,1-2.773-6.275Z" transform="translate(-205.702 31.606)" fill="#00728a"/>
  <path id="Path_11436" data-name="Path 11436" d="M213.854,40.772l-2.106,1.646a44.406,44.406,0,0,0,4.957,5.369l1.809-1.968a41.471,41.471,0,0,1-4.66-5.047" transform="translate(-202.373 37.35)" fill="#00728a"/>
  <path id="Path_11437" data-name="Path 11437" d="M211.459,20.819l-2.531-.858a44.28,44.28,0,0,0-1.77,7.088l2.638.433a41.319,41.319,0,0,1,1.663-6.662" transform="translate(-206.578 18.286)" fill="#00728a"/>
  <path id="Path_11438" data-name="Path 11438" d="M217.346,47.844a43.939,43.939,0,0,0,6.43,3.476l1.073-2.447a41.682,41.682,0,0,1-6.041-3.267Z" transform="translate(-197.245 41.778)" fill="#00728a"/>
  <path id="Path_11439" data-name="Path 11439" d="M231.773,49.588l.218,2.665a44.656,44.656,0,0,0,7.212-1.2l-.659-2.592a41.631,41.631,0,0,1-6.771,1.13" transform="translate(-184.028 44.391)" fill="#00728a"/>
  <path id="Path_11440" data-name="Path 11440" d="M224.314,51.061a44.385,44.385,0,0,0,7.212,1.188l.215-2.665a41.373,41.373,0,0,1-6.775-1.115Z" transform="translate(-190.861 44.401)" fill="#00728a"/>
  <path id="Path_11441" data-name="Path 11441" d="M215.71,14.9,213.6,13.265a44.522,44.522,0,0,0-3.987,6.126l2.353,1.268A41.753,41.753,0,0,1,215.71,14.9" transform="translate(-204.332 12.152)" fill="#00728a"/>
  <path id="Path_11442" data-name="Path 11442" d="M209.528,27.459l-2.673,0a44.759,44.759,0,0,0,.611,7.281L210.1,34.3a42.365,42.365,0,0,1-.573-6.842" transform="translate(-206.855 25.154)" fill="#00728a"/>
  <path id="Path_11443" data-name="Path 11443" d="M254.813,26.9a44.024,44.024,0,0,0-1.818-7.08l-2.525.879a41.475,41.475,0,0,1,1.709,6.647Z" transform="translate(-166.902 18.158)" fill="#00728a"/>
  <path id="Path_11444" data-name="Path 11444" d="M243.227,8.024l-1.456,2.244a41.8,41.8,0,0,1,5.432,4.2l1.8-1.97a44.627,44.627,0,0,0-5.779-4.474" transform="translate(-174.87 7.351)" fill="#00728a"/>
  <path id="Path_11445" data-name="Path 11445" d="M238.7,48.858l1.077,2.447a44.225,44.225,0,0,0,6.419-3.485l-1.466-2.236a41.421,41.421,0,0,1-6.03,3.275" transform="translate(-177.687 41.757)" fill="#00728a"/>
  <path id="Path_11446" data-name="Path 11446" d="M244.671,45.8l1.813,1.964a44.659,44.659,0,0,0,4.945-5.376l-2.11-1.644a42.055,42.055,0,0,1-4.648,5.057" transform="translate(-172.213 37.321)" fill="#00728a"/>
  <path id="Path_11447" data-name="Path 11447" d="M249.06,40.746l2.351,1.276a44.2,44.2,0,0,0,2.939-6.7l-2.531-.866a41.049,41.049,0,0,1-2.759,6.287" transform="translate(-168.192 31.567)" fill="#00728a"/>
  <path id="Path_11448" data-name="Path 11448" d="M221.487,10.335,220.017,8.1a44.7,44.7,0,0,0-5.75,4.507l1.816,1.96a41.785,41.785,0,0,1,5.4-4.235" transform="translate(-200.065 7.423)" fill="#00728a"/>
  <path id="Path_11449" data-name="Path 11449" d="M251.937,27.5a42.127,42.127,0,0,1-.56,6.844l2.637.435a44.768,44.768,0,0,0,.6-7.241l0-.222Z" transform="translate(-166.07 25.024)" fill="#00728a"/>
  <path id="Path_11450" data-name="Path 11450" d="M249.146,13.154l-2.1,1.65a41.5,41.5,0,0,1,3.78,5.733l2.347-1.286a44.48,44.48,0,0,0-4.026-6.1" transform="translate(-170.039 12.05)" fill="#00728a"/>
  <path id="Path_11451" data-name="Path 11451" d="M242,8.147A8.147,8.147,0,1,1,233.855,0,8.147,8.147,0,0,1,242,8.147" transform="translate(-189.584)" fill="#00728a"/>
  <path id="Path_11460" data-name="Path 11460" d="M227.316,37.062l1.385-1.2,1.629-1.412,1.891-1.636H228.7V28.142a2.18,2.18,0,0,1,2.177-2.179h12.01a2.184,2.184,0,0,1,2.18,2.179v1.935h2.767V28.142a4.952,4.952,0,0,0-4.947-4.945h-12.01a4.953,4.953,0,0,0-4.947,4.945v4.671h-3.52l2.158,1.868,1.362,1.18Z" transform="translate(-192.605 21.25)" fill="#00728a"/>
  <path id="Path_11461" data-name="Path 11461" d="M247.706,30.761l-1.556-1.345-1.383-1.2-1.383,1.2-1.556,1.345-1.966,1.7h3.522v4.671a2.183,2.183,0,0,1-2.181,2.179H229.2a2.181,2.181,0,0,1-2.179-2.179V35.141h-2.769v1.995a4.952,4.952,0,0,0,4.947,4.947H241.2a4.952,4.952,0,0,0,4.947-4.947V32.464h3.52Z" transform="translate(-190.922 25.848)" fill="#00728a"/>
  <path id="Path_11462" data-name="Path 11462" d="M275.656,33.5q-10.766-7.369-21.667-14.539-2.368-1.558-4.746-3.1a30.183,30.183,0,0,0-3.181-2.043c-1.521-.726-2.842.462-4.043,1.24q-5.366,3.478-10.7,7.007-6.642,4.4-13.236,8.887c-1,.68-2,1.366-3,2.048a8.282,8.282,0,0,0-.941.669,1.95,1.95,0,0,0,.178,2.981c.962.7,2.7.322,3.815.289.935-.029,1.87-.057,2.8-.092q1.661-.055,3.321-.117c.54-.021.322.789.339,1.245q.026.621.056,1.242c.094,2.11.186,4.221.3,6.331.3,5.645.613,11.3,1.123,16.927.514-5.66.822-11.337,1.127-17.013.113-2.131.207-4.263.3-6.4.046-1.037.086-2.073.128-3.11.052-1.274-.126-2.428-1.7-2.487q-1.917-.072-3.83-.14,6.6-4.055,13.14-8.2,2.773-1.762,5.547-3.531,1.282-.819,2.564-1.642c.535-.345,1.069-.692,1.606-1.035.18-.119,1.069.615,1.244.728q10.8,6.952,21.747,13.685c-1.106.04-2.209.079-3.315.121-1.28.048-2.322.4-2.259,1.922.088,2.19.176,4.38.282,6.568.211,4.447.445,8.894.745,13.336.161,2.4.331,4.8.548,7.195.508-5.66.816-11.337,1.121-17.013.111-2.081.2-4.164.3-6.244.017-.358.031-.719.046-1.077.019-.468-.207-1.439.349-1.418q1.7.063,3.4.121,1.782.063,3.566.115a6.707,6.707,0,0,0,2.573-.1,1.939,1.939,0,0,0,.353-3.365" transform="translate(-200.736 12.45)" fill="#00728a"/>
</svg>
