<svg id="Group_11489" data-name="Group 11489" xmlns="http://www.w3.org/2000/svg" width="88.542" height="96.651" viewBox="0 0 88.542 96.651">
  <path id="Path_11374" data-name="Path 11374" d="M208.114,121.723a44.3,44.3,0,0,0,2.951,6.683l2.347-1.28a41.49,41.49,0,0,1-2.773-6.277Z" transform="translate(-205.702 -54.743)" fill="#00728a"/>
  <path id="Path_11375" data-name="Path 11375" d="M213.854,127.12l-2.106,1.644a44.405,44.405,0,0,0,4.957,5.369l1.809-1.968a41.6,41.6,0,0,1-4.66-5.045" transform="translate(-202.373 -48.998)" fill="#00728a"/>
  <path id="Path_11376" data-name="Path 11376" d="M211.459,107.167l-2.531-.858a44.281,44.281,0,0,0-1.77,7.088l2.638.433a41.319,41.319,0,0,1,1.663-6.662" transform="translate(-206.578 -68.062)" fill="#00728a"/>
  <path id="Path_11377" data-name="Path 11377" d="M217.346,134.192a44.113,44.113,0,0,0,6.43,3.474l1.073-2.447a41.668,41.668,0,0,1-6.041-3.265Z" transform="translate(-197.245 -44.57)" fill="#00728a"/>
  <path id="Path_11378" data-name="Path 11378" d="M231.773,135.936l.218,2.665a44.659,44.659,0,0,0,7.212-1.2l-.659-2.592a41.633,41.633,0,0,1-6.771,1.13" transform="translate(-184.028 -41.957)" fill="#00728a"/>
  <path id="Path_11379" data-name="Path 11379" d="M224.314,137.409a44.377,44.377,0,0,0,7.212,1.188l.215-2.665a41.374,41.374,0,0,1-6.775-1.115Z" transform="translate(-190.861 -41.947)" fill="#00728a"/>
  <path id="Path_11380" data-name="Path 11380" d="M215.71,101.251,213.6,99.613a44.522,44.522,0,0,0-3.987,6.126l2.353,1.268a41.752,41.752,0,0,1,3.748-5.756" transform="translate(-204.332 -74.196)" fill="#00728a"/>
  <path id="Path_11381" data-name="Path 11381" d="M209.528,113.807l-2.673,0a44.758,44.758,0,0,0,.611,7.281l2.635-.443a42.364,42.364,0,0,1-.573-6.842" transform="translate(-206.855 -61.194)" fill="#00728a"/>
  <path id="Path_11382" data-name="Path 11382" d="M254.813,113.249a44.024,44.024,0,0,0-1.818-7.08l-2.525.879a41.475,41.475,0,0,1,1.709,6.647Z" transform="translate(-166.901 -68.191)" fill="#00728a"/>
  <path id="Path_11383" data-name="Path 11383" d="M243.227,94.372l-1.456,2.242a41.981,41.981,0,0,1,5.432,4.2l1.8-1.972a44.782,44.782,0,0,0-5.779-4.472" transform="translate(-174.87 -78.997)" fill="#00728a"/>
  <path id="Path_11384" data-name="Path 11384" d="M238.7,135.206l1.077,2.447a44.225,44.225,0,0,0,6.419-3.485l-1.466-2.236a41.42,41.42,0,0,1-6.03,3.275" transform="translate(-177.686 -44.591)" fill="#00728a"/>
  <path id="Path_11385" data-name="Path 11385" d="M244.671,132.145l1.813,1.964a44.658,44.658,0,0,0,4.945-5.376l-2.11-1.644a42.055,42.055,0,0,1-4.648,5.057" transform="translate(-172.213 -49.027)" fill="#00728a"/>
  <path id="Path_11386" data-name="Path 11386" d="M249.06,127.094l2.351,1.276a44.2,44.2,0,0,0,2.939-6.7l-2.531-.866a41.048,41.048,0,0,1-2.759,6.287" transform="translate(-168.192 -54.781)" fill="#00728a"/>
  <path id="Path_11387" data-name="Path 11387" d="M221.487,96.682l-1.47-2.232a44.7,44.7,0,0,0-5.75,4.507l1.816,1.96a41.786,41.786,0,0,1,5.4-4.235" transform="translate(-200.065 -78.926)" fill="#00728a"/>
  <path id="Path_11388" data-name="Path 11388" d="M251.937,113.849a42.127,42.127,0,0,1-.56,6.844l2.637.435a44.768,44.768,0,0,0,.6-7.241l0-.222Z" transform="translate(-166.07 -61.324)" fill="#00728a"/>
  <path id="Path_11389" data-name="Path 11389" d="M249.146,99.5l-2.1,1.65a41.5,41.5,0,0,1,3.78,5.733l2.347-1.286a44.479,44.479,0,0,0-4.026-6.1" transform="translate(-170.039 -74.298)" fill="#00728a"/>
  <path id="Path_11390" data-name="Path 11390" d="M242,94.5a8.147,8.147,0,1,1-8.147-8.147A8.147,8.147,0,0,1,242,94.5" transform="translate(-189.584 -86.348)" fill="#00728a"/>
  <path id="Path_11467" data-name="Path 11467" d="M241.434,105.859v6.67a1.84,1.84,0,0,1-3.681,0v-6.67a20.147,20.147,0,1,0,3.681,0" transform="translate(-195.322 -68.475)" fill="#00728a"/>
  <path id="Path_11468" data-name="Path 11468" d="M229,100.337v5.721a1.84,1.84,0,1,0,3.681,0v-5.721a1.84,1.84,0,1,0-3.681,0" transform="translate(-186.569 -75.22)" fill="#00728a"/>
  <path id="Path_11469" data-name="Path 11469" d="M224.957,99.445a1.84,1.84,0,0,0-1.163,2.328l1.807,5.43a1.841,1.841,0,0,0,1.746,1.261,1.873,1.873,0,0,0,.582-.1,1.84,1.84,0,0,0,1.163-2.328l-1.807-5.43a1.841,1.841,0,0,0-2.328-1.165" transform="translate(-191.425 -74.437)" fill="#00728a"/>
  <path id="Path_11470" data-name="Path 11470" d="M222.832,109.278A1.84,1.84,0,1,0,225.8,107.1l-3.384-4.616a1.841,1.841,0,1,0-2.97,2.177Z" transform="translate(-195.645 -72.254)" fill="#00728a"/>
  <path id="Path_11471" data-name="Path 11471" d="M223.4,111.675a1.842,1.842,0,0,0-.4-2.573l-4.616-3.382a1.84,1.84,0,1,0-2.177,2.968l4.616,3.384a1.84,1.84,0,0,0,2.573-.4" transform="translate(-198.971 -68.929)" fill="#00728a"/>
  <path id="Path_11472" data-name="Path 11472" d="M220.934,111.871l-5.43-1.807a1.84,1.84,0,1,0-1.163,3.491l5.43,1.809a1.859,1.859,0,0,0,.581.094,1.841,1.841,0,0,0,.582-3.587" transform="translate(-201.152 -64.709)" fill="#00728a"/>
  <path id="Path_11473" data-name="Path 11473" d="M219.79,118.952a1.84,1.84,0,0,0,0-3.681h-5.723a1.84,1.84,0,1,0,0,3.681Z" transform="translate(-201.936 -59.853)" fill="#00728a"/>
  <path id="Path_11474" data-name="Path 11474" d="M219.769,119.725l-5.43,1.807a1.842,1.842,0,0,0,1.163,3.495l5.43-1.811a1.84,1.84,0,1,0-1.163-3.491" transform="translate(-201.152 -55.86)" fill="#00728a"/>
  <path id="Path_11475" data-name="Path 11475" d="M249.938,121.531l-5.43-1.807a1.84,1.84,0,1,0-1.161,3.491l5.43,1.809a1.84,1.84,0,0,0,1.161-3.493" transform="translate(-174.582 -55.86)" fill="#00728a"/>
  <path id="Path_11476" data-name="Path 11476" d="M250.352,115.271h-5.723a1.84,1.84,0,1,0,0,3.681h5.723a1.84,1.84,0,0,0,0-3.681" transform="translate(-173.939 -59.853)" fill="#00728a"/>
  <path id="Path_11477" data-name="Path 11477" d="M248.775,110.064l-5.43,1.807a1.841,1.841,0,0,0,1.161,3.495l5.43-1.811a1.84,1.84,0,1,0-1.161-3.491" transform="translate(-174.582 -64.709)" fill="#00728a"/>
  <path id="Path_11478" data-name="Path 11478" d="M248.07,106.116a1.84,1.84,0,0,0-2.573-.4l-4.616,3.384a1.84,1.84,0,1,0,2.177,2.968l4.616-3.382a1.843,1.843,0,0,0,.4-2.573" transform="translate(-176.374 -68.929)" fill="#00728a"/>
  <path id="Path_11479" data-name="Path 11479" d="M240.882,102.486,237.5,107.1a1.841,1.841,0,1,0,2.97,2.177l3.384-4.616a1.84,1.84,0,1,0-2.968-2.177" transform="translate(-179.11 -72.254)" fill="#00728a"/>
  <path id="Path_11480" data-name="Path 11480" d="M234.617,108.369a1.872,1.872,0,0,0,.582.1,1.841,1.841,0,0,0,1.746-1.261l1.807-5.43a1.84,1.84,0,1,0-3.491-1.163l-1.807,5.43a1.84,1.84,0,0,0,1.163,2.328" transform="translate(-182.576 -74.436)" fill="#00728a"/>
  <text id="_2" data-name="2" transform="translate(34.202 62.844)" fill="#fff" font-size="17" font-family="SegoeUI, Segoe UI"><tspan x="0" y="0">2</tspan></text>
  <text id="_4" data-name="4" transform="translate(42.738 62.844)" fill="#fff" font-size="17" font-family="SegoeUI, Segoe UI"><tspan x="0" y="0">4</tspan></text>
  <text id="_" data-name="°" transform="translate(50.051 59.844)" fill="#fff" font-size="14" font-family="SegoeUI, Segoe UI"><tspan x="0" y="0">°</tspan></text>
</svg>
