<svg xmlns="http://www.w3.org/2000/svg" width="75.303" height="75.301" viewBox="0 0 75.303 75.301">
  <g id="Group_11578" data-name="Group 11578" transform="translate(-1150.411 -1276.688)">
    <path id="Path_11526" data-name="Path 11526" d="M308.7,349.367l-1.39-1.552,4.1-3.65,1.38,1.555Z" transform="translate(892.731 954.689)" fill="#00728a"/>
    <path id="Path_11528" data-name="Path 11528" d="M307.175,349.445v-.025c0-1.79-.892-3.252-2.25-3.252s-2.215,1.425-2.215,3.225v.028c0,1.785.882,3.255,2.245,3.255s2.22-1.44,2.22-3.23m-6.052,0v-.025c0-2.592,1.53-4.695,3.833-4.695s3.81,2.073,3.81,4.667v.028c0,2.593-1.53,4.695-3.84,4.695s-3.8-2.082-3.8-4.67" transform="translate(883.449 955.531)" fill="#00728a"/>
    <path id="Path_11529" data-name="Path 11529" d="M304.329,351.7l.675-1.062a3.646,3.646,0,0,0,2.162.845c.657,0,1.037-.287,1.037-.745v-.022c0-.532-.71-.715-1.482-.955-.98-.287-2.072-.7-2.072-2.015v-.03a2.14,2.14,0,0,1,2.36-2.082,4.445,4.445,0,0,1,2.425.777l-.6,1.115a3.736,3.736,0,0,0-1.868-.65c-.585,0-.922.29-.922.688v.027c0,.493.71.7,1.485.958.967.31,2.055.767,2.055,1.995v.025c0,1.447-1.075,2.155-2.453,2.155a4.508,4.508,0,0,1-2.8-1.022" transform="translate(888.257 956.892)" fill="#00728a"/>
    <path id="Path_11531" data-name="Path 11531" d="M318.206,342.21A24.293,24.293,0,1,0,342.5,366.5a24.328,24.328,0,0,0-24.294-24.292m0,51.009A26.714,26.714,0,1,1,344.923,366.5a26.746,26.746,0,0,1-26.717,26.717" transform="translate(869.006 948.128)" fill="#00728a"/>
    <path id="Path_11536" data-name="Path 11536" d="M302.08,336.635a13.3,13.3,0,0,0-13.287,13.285v45.757a13.3,13.3,0,0,0,13.287,13.29h45.764a13.3,13.3,0,0,0,13.282-13.29V349.92a13.3,13.3,0,0,0-13.282-13.285ZM347.844,410.2H302.08a14.537,14.537,0,0,1-14.522-14.522V349.92A14.542,14.542,0,0,1,302.08,335.4h45.764a14.54,14.54,0,0,1,14.517,14.522v45.757A14.535,14.535,0,0,1,347.844,410.2" transform="translate(863.103 941.541)" fill="#00728a"/>
    <path id="Path_11537" data-name="Path 11537" d="M302.08,336.635a13.3,13.3,0,0,0-13.287,13.285v45.757a13.3,13.3,0,0,0,13.287,13.29h45.764a13.3,13.3,0,0,0,13.282-13.29V349.92a13.3,13.3,0,0,0-13.282-13.285ZM347.844,410.2H302.08a14.537,14.537,0,0,1-14.522-14.522V349.92A14.542,14.542,0,0,1,302.08,335.4h45.764a14.54,14.54,0,0,1,14.517,14.522v45.757A14.535,14.535,0,0,1,347.844,410.2" transform="translate(863.103 941.541)" fill="none" stroke="#00728a" stroke-width="0.5"/>
    <path id="Path_11525" data-name="Path 11525" d="M302.64,351.014a1.736,1.736,0,1,1-.045,2.46,1.741,1.741,0,0,1,.045-2.46m3.242,3.4.04-.035a2.932,2.932,0,1,0-4.352-.342l2.405,12.277Z" transform="translate(883.209 962.454)" fill="#00728a"/>
    <rect id="Rectangle_1373" data-name="Rectangle 1373" width="5.48" height="2.082" transform="translate(1164.088 1313.408)" fill="#00728a"/>
    <rect id="Rectangle_1374" data-name="Rectangle 1374" width="5.765" height="2.132" transform="translate(1204.521 1313.363)" fill="#00728a"/>
    <rect id="Rectangle_1375" data-name="Rectangle 1375" width="2.08" height="5.487" transform="translate(1186.04 1291.41)" fill="#00728a"/>
    <rect id="Rectangle_1376" data-name="Rectangle 1376" width="2.078" height="5.49" transform="matrix(0.665, -0.746, 0.746, 0.665, 1169.631, 1299.863)" fill="#00728a"/>
    <rect id="Rectangle_1377" data-name="Rectangle 1377" width="5.487" height="2.078" transform="matrix(0.747, -0.664, 0.664, 0.747, 1169.631, 1329.527)" fill="#00728a"/>
    <rect id="Rectangle_1378" data-name="Rectangle 1378" width="2.08" height="5.485" transform="matrix(0.665, -0.747, 0.747, 0.665, 1200.049, 1326.79)" fill="#00728a"/>
    <path id="Path_11527" data-name="Path 11527" d="M298.357,352.426l1.075-1.035a2.844,2.844,0,0,0,2.31,1.188,1.383,1.383,0,0,0,1.51-1.375v-.022c0-.892-.785-1.4-2.012-1.4h-.715l-.253-1.007,2.368-2.6h-3.792v-1.39h5.8v1.2l-2.45,2.588c1.335.18,2.582.872,2.582,2.555v.023a2.847,2.847,0,0,1-3.073,2.872,4.108,4.108,0,0,1-3.355-1.6" transform="translate(879.3 955.622)" fill="#00728a"/>
    <path id="Path_11530" data-name="Path 11530" d="M304.311,365.036l-.017-1.435-.98,1.015-.338-.335,1.282-1.3.018-1.6-1.31.775-.508,1.84-.455-.117.352-1.37-1.24.733-.335-.56,1.237-.732-1.367-.35.115-.452,1.773.452,1.227-.682.175-.1-1.33-.755-1.85.49-.125-.455,1.35-.385-1.242-.7.32-.57,1.257.705-.385-1.358.45-.122.5,1.757,1.2.72.172.1-.012-1.523-1.348-1.357.332-.338,1.007.98-.017-1.432.657-.01.013,1.442.99-1.017.332.34-1.277,1.3-.023,1.6,1.313-.772.512-1.842.448.117-.348,1.362,1.233-.725.337.563-1.237.727,1.368.353-.118.45-1.77-.45-1.225.68-.175.1,1.327.75,1.848-.488.13.458-1.357.375,1.25.7-.323.578-1.247-.707.375,1.357-.45.13-.495-1.767-1.377-.815.017,1.52,1.342,1.37-.325.327-1.013-.983.018,1.435Z" transform="translate(882.719 973.272)" fill="#00728a"/>
    <path id="Path_11532" data-name="Path 11532" d="M294,350.574l1.395-1.447.01.823c.207-.28.43-.57.678-.877l-.005-.66,1.472-1.54.11.4c.445-.463.94-.94,1.472-1.43l-.477-.117.2-.2,1.4-1.375.932-.023c.213-.165.435-.33.66-.49.048-.065.087-.125.135-.182l-1.155.023,1.392-1.445-.667-.638-1.39,1.445-.04-1.967-.655.012.007,2.67L298,345.092l-.575-2.168,1.23-2.242-.572-.32-.945,1.73-.562-1.93-.885.258.557,1.925-1.72-.953-.323.583,2.325,1.335.59,2.035-.277-.067-1.89-.52-1.328-2.187-.557.34,1.025,1.685-1.96-.477-.215.888,1.947.485-1.687,1.02.337.563,2.32-1.345,2.065.512-.2.2-1.4,1.385-2.56.05.015.655,1.973-.042-1.39,1.447Z" transform="translate(869.637 948.686)" fill="#00728a"/>
    <path id="Path_11534" data-name="Path 11534" d="M293.442,361.255l-.013-.85-.578.595-.2-.19.753-.777,0-.945-.767.46-.295,1.087-.27-.07.205-.81-.728.435-.2-.338.725-.428-.8-.207.068-.265,1.05.265.72-.407.1-.053-.777-.445-1.093.29-.078-.265.8-.23-.735-.41.19-.34.745.413-.23-.8.265-.067.29,1.042.715.423.1.055-.017-.9-.79-.8.195-.2.6.585-.01-.845.387-.005.008.85.585-.6.2.2-.755.772-.01.945.772-.458.295-1.09.273.073-.208.805.732-.432.2.332-.732.433.81.21-.065.265-1.047-.265-.72.4-.11.063.785.445,1.092-.285.078.267-.8.22.737.415-.192.34-.737-.415.227.8-.265.075-.288-1.04-.822-.483.01.9.795.8-.19.2-.6-.58.013.845Z" transform="translate(868.669 972.82)" fill="#00728a"/>
    <path id="Path_11535" data-name="Path 11535" d="M310.465,367.168l-.018-1.24-.837.875-.292-.29,1.1-1.117.017-1.392-1.127.672-.442,1.6-.385-.105.3-1.175-1.07.625-.287-.485,1.062-.63-1.175-.3.1-.385,1.527.385,1.053-.58.152-.1-1.145-.64-1.592.415-.107-.388,1.167-.325-1.075-.608.272-.5,1.078.608-.327-1.172.39-.1.425,1.517,1.038.623.15.08-.013-1.31-1.162-1.17.287-.285.87.84-.013-1.235.568-.008.012,1.24.843-.873.292.285L311,361.64l-.015,1.38,1.127-.665.435-1.6.393.1-.3,1.177,1.062-.633.3.493-1.067.633,1.175.3-.095.388-1.527-.388-1.052.583-.153.09,1.145.648,1.59-.42.11.393-1.167.327,1.075.607-.28.49-1.075-.607.325,1.17-.39.107-.42-1.517L311,364l.015,1.315,1.163,1.177-.285.285-.873-.85.018,1.24Z" transform="translate(892.715 978.233)" fill="#00728a"/>
  </g>
</svg>
