<svg xmlns="http://www.w3.org/2000/svg" width="108" height="107.816" viewBox="0 0 108 107.816">
  <g id="blogger" transform="translate(-0.76 -0.65)">
    <path id="Path_11289" data-name="Path 11289" d="M49.872,75.2,62.364,72a2.056,2.056,0,0,0,1.106-.577l43.486-43.51a6.18,6.18,0,0,0,0-8.728l-3.511-3.523a6.2,6.2,0,0,0-8.74,0L87.491,22.88V9.282A8.644,8.644,0,0,0,78.81.65H9.392A8.644,8.644,0,0,0,.76,9.282V84.592a8.644,8.644,0,0,0,8.632,8.632H42.358l20.763,14.848a2.1,2.1,0,0,0,3.33-1.707V93.224H78.81a8.644,8.644,0,0,0,8.632-8.632V60.751a2.1,2.1,0,1,0-4.208,0V84.592a4.424,4.424,0,0,1-4.424,4.424H60.969a2.1,2.1,0,0,0,0,4.208h1.274v9.053L44.21,89.4a2.08,2.08,0,0,0-1.2-.385H9.344A4.424,4.424,0,0,1,4.92,84.592V9.282A4.424,4.424,0,0,1,9.392,4.858H78.81a4.424,4.424,0,0,1,4.424,4.424V27.136L51.219,59.152a2.1,2.1,0,0,0-.577,1.106L47.3,72.605a2.044,2.044,0,0,0,.529,2.044,2.188,2.188,0,0,0,2.044.553Zm44.243-53,6.3,6.3L61.943,66.978l-6.3-6.288ZM53.876,64.79,57.8,68.71l-5.446,1.479Zm45.193-46.72a1.96,1.96,0,0,1,1.395.577l3.511,3.511a1.96,1.96,0,0,1,0,2.777l-.589.589L97.1,19.237l.589-.589A1.912,1.912,0,0,1,99.068,18.071Z" transform="translate(0 0)" fill="#fff"/>
    <path id="Path_11290" data-name="Path 11290" d="M17.624,19.058H34.768a2.1,2.1,0,0,0,0-4.208H17.624a2.1,2.1,0,0,0,0,4.208Z" transform="translate(2.985 2.872)" fill="#fff"/>
    <path id="Path_11291" data-name="Path 11291" d="M52.669,19.058a2.1,2.1,0,0,0,0-4.208h-13.1a2.1,2.1,0,1,0,0,4.208Z" transform="translate(7.423 2.872)" fill="#fff"/>
    <path id="Path_11292" data-name="Path 11292" d="M17.624,33.708h8.091a2.1,2.1,0,1,0,0-4.208H17.624a2.1,2.1,0,1,0,0,4.208Z" transform="translate(2.985 5.835)" fill="#fff"/>
    <path id="Path_11293" data-name="Path 11293" d="M40.5,46.284a2.1,2.1,0,0,0-2.1-2.1H31.074a2.1,2.1,0,1,0,0,4.208H38.4a2.1,2.1,0,0,0,2.1-2.1Z" transform="translate(5.706 8.804)" fill="#fff"/>
    <path id="Path_11294" data-name="Path 11294" d="M17.624,63.048H37.846a2.1,2.1,0,1,0,0-4.208H17.624a2.1,2.1,0,1,0,0,4.208Z" transform="translate(2.985 11.769)" fill="#fff"/>
    <path id="Path_11295" data-name="Path 11295" d="M61.124,19.058a2.1,2.1,0,0,0,0-4.208h-4.04a2.1,2.1,0,1,0,0,4.208Z" transform="translate(10.966 2.872)" fill="#fff"/>
    <path id="Path_11296" data-name="Path 11296" d="M56.411,31.624a2.1,2.1,0,0,0-2.1-2.1H31.464a2.1,2.1,0,1,0,0,4.208H54.307A2.1,2.1,0,0,0,56.411,31.624Z" transform="translate(5.785 5.839)" fill="#fff"/>
    <path id="Path_11297" data-name="Path 11297" d="M23.826,44.18H19.354a2.1,2.1,0,1,0,0,4.208h4.533a2.1,2.1,0,1,0,0-4.208Z" transform="translate(3.335 8.804)" fill="#fff"/>
  </g>
</svg>
