<svg xmlns="http://www.w3.org/2000/svg" width="30" height="30" viewBox="0 0 30 30">
  <g id="instagram" transform="translate(-0.001)">
    <path id="Path_73" data-name="Path 73" d="M30.372,8.82a10.96,10.96,0,0,0-.7-3.639A7.686,7.686,0,0,0,25.284.791a10.994,10.994,0,0,0-3.64-.7C20.038.018,19.528,0,15.454,0S10.871.018,9.27.088a10.969,10.969,0,0,0-3.64.7A7.321,7.321,0,0,0,2.969,2.52,7.386,7.386,0,0,0,1.24,5.175a10.99,10.99,0,0,0-.7,3.639C.466,10.42.449,10.93.449,15s.018,4.583.088,6.183a10.96,10.96,0,0,0,.7,3.639,7.684,7.684,0,0,0,4.39,4.389,11,11,0,0,0,3.64.7c1.6.071,2.11.088,6.184.088s4.584-.017,6.184-.088a10.963,10.963,0,0,0,3.64-.7,7.674,7.674,0,0,0,4.391-4.389,11,11,0,0,0,.7-3.639c.07-1.6.088-2.11.088-6.183s-.006-4.583-.076-6.183Zm-2.7,12.249a8.221,8.221,0,0,1-.516,2.784A4.977,4.977,0,0,1,24.306,26.7a8.255,8.255,0,0,1-2.784.516c-1.583.071-2.057.088-6.061.088s-4.484-.017-6.061-.088A8.221,8.221,0,0,1,6.615,26.7a4.617,4.617,0,0,1-1.723-1.119,4.664,4.664,0,0,1-1.12-1.723,8.252,8.252,0,0,1-.516-2.784c-.071-1.582-.088-2.057-.088-6.06s.017-4.483.088-6.06a8.217,8.217,0,0,1,.516-2.784A4.56,4.56,0,0,1,4.9,4.448,4.658,4.658,0,0,1,6.621,3.329a8.261,8.261,0,0,1,2.784-.516c1.583-.07,2.058-.088,6.061-.088s4.484.018,6.061.088a8.226,8.226,0,0,1,2.784.516,4.614,4.614,0,0,1,1.723,1.119,4.663,4.663,0,0,1,1.12,1.723,8.255,8.255,0,0,1,.516,2.784c.07,1.582.088,2.057.088,6.06s-.018,4.472-.088,6.054Zm0,0" transform="translate(-0.448 0)"/>
    <path id="Path_74" data-name="Path 74" d="M132.759,124.5a7.807,7.807,0,1,0,7.809,7.807A7.81,7.81,0,0,0,132.759,124.5Zm0,12.871a5.064,5.064,0,1,1,5.066-5.064A5.066,5.066,0,0,1,132.759,137.371Zm0,0" transform="translate(-117.752 -117.304)"/>
    <path id="Path_75" data-name="Path 75" d="M366,90.376a1.775,1.775,0,1,1-1.775-1.774A1.775,1.775,0,0,1,366,90.376Zm0,0" transform="translate(-341.19 -83.4)"/>
  </g>
</svg>
