<svg id="facebook" xmlns="http://www.w3.org/2000/svg" width="30" height="30" viewBox="0 0 30 30">
  <g id="Group_87" data-name="Group 87">
    <path id="Path_72" data-name="Path 72" d="M26.484,0H3.516A3.52,3.52,0,0,0,0,3.516V26.484A3.52,3.52,0,0,0,3.516,30H26.484A3.52,3.52,0,0,0,30,26.484V3.516A3.52,3.52,0,0,0,26.484,0Zm1.172,26.484a1.173,1.173,0,0,1-1.172,1.172H19.8V18.105h3.621l.6-3.633H19.8v-2.52A1.728,1.728,0,0,1,21.563,10.2h2.4V6.562h-2.4a5.39,5.39,0,0,0-5.389,5.4v2.509H12.656v3.633h3.517v9.551H3.516a1.173,1.173,0,0,1-1.172-1.172V3.516A1.173,1.173,0,0,1,3.516,2.344H26.484a1.173,1.173,0,0,1,1.172,1.172Z"/>
  </g>
</svg>
