<svg id="instagram" xmlns="http://www.w3.org/2000/svg" width="26.467" height="26.472" viewBox="0 0 26.467 26.472">
  <path id="Path_73" data-name="Path 73" d="M26.848,7.783a9.673,9.673,0,0,0-.615-3.211A6.781,6.781,0,0,0,22.36.7,9.7,9.7,0,0,0,19.148.083C17.731.016,17.281,0,13.687,0S9.643.016,8.231.078A9.676,9.676,0,0,0,5.02.693,6.459,6.459,0,0,0,2.672,2.224,6.518,6.518,0,0,0,1.147,4.566,9.7,9.7,0,0,0,.531,7.778C.464,9.195.449,9.645.449,13.239s.016,4.044.078,5.456a9.672,9.672,0,0,0,.616,3.211,6.78,6.78,0,0,0,3.873,3.873,9.7,9.7,0,0,0,3.212.615c1.412.062,1.862.078,5.456.078s4.044-.015,5.456-.078a9.671,9.671,0,0,0,3.211-.615,6.771,6.771,0,0,0,3.873-3.873,9.705,9.705,0,0,0,.615-3.211c.062-1.412.078-1.862.078-5.456s-.005-4.044-.067-5.456ZM24.465,18.591a7.256,7.256,0,0,1-.455,2.456A4.391,4.391,0,0,1,21.5,23.561a7.282,7.282,0,0,1-2.456.455c-1.4.062-1.815.078-5.347.078s-3.956-.015-5.347-.078a7.252,7.252,0,0,1-2.456-.455,4.073,4.073,0,0,1-1.52-.988,4.116,4.116,0,0,1-.988-1.52A7.283,7.283,0,0,1,2.926,18.6c-.062-1.4-.078-1.815-.078-5.347s.015-3.956.078-5.347a7.252,7.252,0,0,1,.455-2.456,4.024,4.024,0,0,1,.993-1.52,4.109,4.109,0,0,1,1.52-.988,7.287,7.287,0,0,1,2.456-.455C9.747,2.42,10.166,2.4,13.7,2.4s3.956.016,5.347.078a7.256,7.256,0,0,1,2.456.455,4.071,4.071,0,0,1,1.52.988,4.115,4.115,0,0,1,.988,1.52A7.285,7.285,0,0,1,24.465,7.9c.062,1.4.078,1.815.078,5.347s-.016,3.946-.078,5.342Zm0,0" transform="translate(-0.449 0)"/>
  <path id="Path_74" data-name="Path 74" d="M131.749,124.5a6.8,6.8,0,1,0,6.8,6.8A6.8,6.8,0,0,0,131.749,124.5Zm0,11.212a4.411,4.411,0,1,1,4.411-4.411A4.412,4.412,0,0,1,131.749,135.712Zm0,0" transform="translate(-118.511 -118.062)"/>
  <path id="Path_75" data-name="Path 75" d="M365.625,90.189a1.588,1.588,0,1,1-1.588-1.588A1.588,1.588,0,0,1,365.625,90.189Zm0,0" transform="translate(-343.729 -84.02)"/>
</svg>
