<svg xmlns="http://www.w3.org/2000/svg" width="65" height="65" viewBox="0 0 65 65">
  <g id="Group_11811" data-name="Group 11811" transform="translate(-138.331 -756.979)">
    <path id="Path_13208" data-name="Path 13208" d="M24.75,374.479a11,11,0,1,1-11,11,11,11,0,0,1,11-11m0,27.5a16.5,16.5,0,1,0-16.5-16.5,16.5,16.5,0,0,0,16.5,16.5" transform="translate(138.331 388)" fill="#07a9b1"/>
    <path id="Path_13209" data-name="Path 13209" d="M57.75,396.479v-8.25h-5.5v8.25H44v5.5h8.25v8.25h5.5v-8.25H66v-5.5Z" transform="translate(137.331 387.563)" fill="#07a9b1"/>
    <path id="Path_13210" data-name="Path 13210" d="M35.868,407.479H13.632A13.648,13.648,0,0,0,0,421.111v13.868H5.5V421.111a8.139,8.139,0,0,1,8.132-8.132H35.868A8.141,8.141,0,0,1,44,421.111v13.868h5.5V421.111a13.648,13.648,0,0,0-13.632-13.632" transform="translate(138.331 387)" fill="#07a9b1"/>
  </g>
</svg>
