<svg xmlns="http://www.w3.org/2000/svg" width="76.023" height="76.016" viewBox="0 0 76.023 76.016">
  <g id="Group_11580" data-name="Group 11580" transform="translate(-912.355 -1276.688)">
    <path id="Path_11546" data-name="Path 11546" d="M204.644,362.206l2.365-3.035-1.327-1.035-2.977,3.81,4.3,10.317c.592.108,1.245.2,1.95.285Z" transform="translate(735.825 975.646)" fill="#00728a"/>
    <path id="Path_11547" data-name="Path 11547" d="M231.3,371.191a6.147,6.147,0,0,0-2.917-4.96,9.041,9.041,0,0,0-3.272-1.157,5.96,5.96,0,0,0-3.255-2.265,5.3,5.3,0,0,0-2.585-.167,4.717,4.717,0,0,0-3.2-1.72,6.379,6.379,0,0,0-2.065.065c0-2.76,0-5.545.01-7.325a4.4,4.4,0,0,0-4.485-4.487h-.012a4.192,4.192,0,0,0-4.282,4.47c-.012,5.032-.035,23.26-.035,23.26h1.682s.03-18.22.042-23.252a2.522,2.522,0,0,1,2.592-2.782h0a2.707,2.707,0,0,1,2.8,2.792c-.013,4.645-.022,16.16-.022,16.16l1.688.007s0-3.315.007-7.092a4,4,0,0,1,1.885-.135,3.035,3.035,0,0,1,2.23,1.312L218.1,371.6l1.69,0,.017-7.335a3.755,3.755,0,0,1,1.6.18,4.116,4.116,0,0,1,2.37,1.66l-.013,7.017,1.69.007.013-6.282a8.148,8.148,0,0,1,2.085.85,4.51,4.51,0,0,1,2.062,3.49c0,.578-.013,5.8-.025,9.2.57-.362,1.14-.735,1.695-1.14.008-3.328.018-7.537.018-8.057" transform="translate(739.562 962.204)" fill="#00728a"/>
    <path id="Path_11548" data-name="Path 11548" d="M212.133,365.848a5.043,5.043,0,0,1,.6-.662h-4.85V353.453h-5.852l14.872-14.12,14.882,14.12h-5.86v11.732H220.9c.017.015.04.027.063.045a5.914,5.914,0,0,1,.555.617h5.08V354.121h6.852L216.9,338.411l-16.55,15.71h6.867v11.727Z" transform="translate(732.297 946.06)" fill="#00728a"/>
    <path id="Path_11549" data-name="Path 11549" d="M209.459,350.857h3.107v7.65a7.044,7.044,0,0,1,.672.412V350.2h-3.982c.072.218.15.432.2.662" transform="translate(745.654 963.735)" fill="#00728a"/>
    <path id="Path_11550" data-name="Path 11550" d="M210.8,370.921l-8.775-8.332h5.857v-11.73h3.065c.042-.238.108-.445.168-.663h-3.895v11.727h-6.867l10.442,9.907Z" transform="translate(732.298 963.736)" fill="#00728a"/>
    <path id="Path_11551" data-name="Path 11551" d="M231.3,371.191a6.147,6.147,0,0,0-2.917-4.96,9.041,9.041,0,0,0-3.272-1.157,5.96,5.96,0,0,0-3.255-2.265,5.3,5.3,0,0,0-2.585-.167,4.717,4.717,0,0,0-3.2-1.72,6.379,6.379,0,0,0-2.065.065c0-2.76,0-5.545.01-7.325a4.4,4.4,0,0,0-4.485-4.487h-.012a4.192,4.192,0,0,0-4.282,4.47c-.012,5.032-.035,23.26-.035,23.26h1.682s.03-18.22.042-23.252a2.522,2.522,0,0,1,2.592-2.782h0a2.707,2.707,0,0,1,2.8,2.792c-.013,4.645-.022,16.16-.022,16.16l1.688.007s0-3.315.007-7.092a4,4,0,0,1,1.885-.135,3.035,3.035,0,0,1,2.23,1.312L218.1,371.6l1.69,0,.017-7.335a3.755,3.755,0,0,1,1.6.18,4.116,4.116,0,0,1,2.37,1.66l-.013,7.017,1.69.007.013-6.282a8.148,8.148,0,0,1,2.085.85,4.51,4.51,0,0,1,2.062,3.49c0,.578-.013,5.8-.025,9.2.57-.362,1.14-.735,1.695-1.14.008-3.328.018-7.537.018-8.057" transform="translate(739.562 962.204)" fill="#00728a"/>
    <path id="Path_11552" data-name="Path 11552" d="M206.986,336.635a13.431,13.431,0,0,0-13.417,13.42v46.207a13.433,13.433,0,0,0,13.417,13.42H253.2a13.434,13.434,0,0,0,13.417-13.42V350.055a13.433,13.433,0,0,0-13.417-13.42ZM253.2,410.914H206.986a14.666,14.666,0,0,1-14.652-14.652V350.055A14.671,14.671,0,0,1,206.986,335.4H253.2a14.675,14.675,0,0,1,14.657,14.657v46.207A14.671,14.671,0,0,1,253.2,410.914" transform="translate(720.271 941.541)" fill="#00728a"/>
    <path id="Path_11553" data-name="Path 11553" d="M206.986,336.635a13.431,13.431,0,0,0-13.417,13.42v46.207a13.433,13.433,0,0,0,13.417,13.42H253.2a13.434,13.434,0,0,0,13.417-13.42V350.055a13.433,13.433,0,0,0-13.417-13.42ZM253.2,410.914H206.986a14.666,14.666,0,0,1-14.652-14.652V350.055A14.671,14.671,0,0,1,206.986,335.4H253.2a14.675,14.675,0,0,1,14.657,14.657v46.207A14.671,14.671,0,0,1,253.2,410.914" transform="translate(720.271 941.541)" fill="none" stroke="#00728a" stroke-width="0.5"/>
  </g>
</svg>
