<svg xmlns="http://www.w3.org/2000/svg" width="88.542" height="96.651" viewBox="0 0 88.542 96.651">
  <g id="Group_11483" data-name="Group 11483" transform="translate(0)">
    <path id="Path_11391" data-name="Path 11391" d="M76.762,35.374a44.3,44.3,0,0,0,2.951,6.683l2.347-1.28A41.353,41.353,0,0,1,79.289,34.5Z" transform="translate(-74.348 31.606)" fill="#00728a"/>
    <path id="Path_11392" data-name="Path 11392" d="M82.5,40.772l-2.106,1.646a44.268,44.268,0,0,0,4.959,5.369l1.807-1.968a41.623,41.623,0,0,1-4.66-5.047" transform="translate(-71.02 37.35)" fill="#00728a"/>
    <path id="Path_11393" data-name="Path 11393" d="M80.107,20.819l-2.529-.858A44.081,44.081,0,0,0,75.8,27.049l2.638.433a41.314,41.314,0,0,1,1.663-6.662" transform="translate(-75.224 18.286)" fill="#00728a"/>
    <path id="Path_11394" data-name="Path 11394" d="M85.993,47.844a43.861,43.861,0,0,0,6.432,3.476L93.5,48.873a41.581,41.581,0,0,1-6.041-3.267Z" transform="translate(-65.891 41.778)" fill="#00728a"/>
    <path id="Path_11395" data-name="Path 11395" d="M100.421,49.588l.218,2.665a44.657,44.657,0,0,0,7.212-1.2l-.657-2.592a41.654,41.654,0,0,1-6.773,1.13" transform="translate(-52.674 44.391)" fill="#00728a"/>
    <path id="Path_11396" data-name="Path 11396" d="M92.961,51.061a44.385,44.385,0,0,0,7.212,1.188l.215-2.665a41.374,41.374,0,0,1-6.775-1.115Z" transform="translate(-59.508 44.401)" fill="#00728a"/>
    <path id="Path_11397" data-name="Path 11397" d="M84.357,14.9l-2.113-1.638a44.522,44.522,0,0,0-3.987,6.126l2.353,1.268A41.929,41.929,0,0,1,84.357,14.9" transform="translate(-72.979 12.152)" fill="#00728a"/>
    <path id="Path_11398" data-name="Path 11398" d="M78.177,27.459l-2.675,0a44.545,44.545,0,0,0,.613,7.281L78.75,34.3a42.15,42.15,0,0,1-.573-6.842" transform="translate(-75.502 25.154)" fill="#00728a"/>
    <path id="Path_11399" data-name="Path 11399" d="M123.46,26.9a44.03,44.03,0,0,0-1.818-7.08l-2.523.879a41.672,41.672,0,0,1,1.707,6.647Z" transform="translate(-35.546 18.158)" fill="#00728a"/>
    <path id="Path_11400" data-name="Path 11400" d="M111.875,8.024l-1.456,2.244a41.8,41.8,0,0,1,5.432,4.2l1.8-1.97a44.5,44.5,0,0,0-5.779-4.474" transform="translate(-43.515 7.351)" fill="#00728a"/>
    <path id="Path_11401" data-name="Path 11401" d="M107.344,48.858l1.077,2.447a44.145,44.145,0,0,0,6.421-3.485l-1.466-2.236a41.441,41.441,0,0,1-6.032,3.275" transform="translate(-46.332 41.757)" fill="#00728a"/>
    <path id="Path_11402" data-name="Path 11402" d="M113.318,45.8l1.813,1.964a44.656,44.656,0,0,0,4.945-5.376l-2.108-1.644a42.234,42.234,0,0,1-4.65,5.057" transform="translate(-40.86 37.321)" fill="#00728a"/>
    <path id="Path_11403" data-name="Path 11403" d="M117.707,40.746l2.351,1.276a44.4,44.4,0,0,0,2.941-6.7l-2.533-.866a41.046,41.046,0,0,1-2.759,6.287" transform="translate(-36.839 31.567)" fill="#00728a"/>
    <path id="Path_11404" data-name="Path 11404" d="M90.135,10.335,88.665,8.1a44.694,44.694,0,0,0-5.75,4.507l1.818,1.96a41.64,41.64,0,0,1,5.4-4.235" transform="translate(-68.711 7.423)" fill="#00728a"/>
    <path id="Path_11405" data-name="Path 11405" d="M120.583,27.5a42.126,42.126,0,0,1-.559,6.844l2.638.435a44.765,44.765,0,0,0,.6-7.241v-.222Z" transform="translate(-34.717 25.024)" fill="#00728a"/>
    <path id="Path_11406" data-name="Path 11406" d="M117.793,13.154l-2.1,1.65a41.685,41.685,0,0,1,3.782,5.733l2.345-1.286a44.482,44.482,0,0,0-4.026-6.1" transform="translate(-38.686 12.05)" fill="#00728a"/>
    <path id="Path_11407" data-name="Path 11407" d="M110.649,8.147A8.147,8.147,0,1,1,102.5,0a8.147,8.147,0,0,1,8.147,8.147" transform="translate(-58.231)" fill="#00728a"/>
    <path id="Path_11408" data-name="Path 11408" d="M150.27,22.849H81.024a1.015,1.015,0,0,1-1.016-1.016V19.84a1.018,1.018,0,0,1,1.016-1.019H150.27a1.02,1.02,0,0,1,1.017,1.019v1.993a1.016,1.016,0,0,1-1.017,1.016" transform="translate(-71.374 17.241)" fill="#00728a"/>
    <path id="Path_11409" data-name="Path 11409" d="M91.087,20.525V47.72a1.016,1.016,0,0,1-1.016,1.017H88.078a1.018,1.018,0,0,1-1.019-1.017V20.525a1.018,1.018,0,0,1,1.019-1.017h1.993a1.016,1.016,0,0,1,1.016,1.017" transform="translate(-64.915 17.871)" fill="#00728a"/>
    <path id="Path_11410" data-name="Path 11410" d="M102.764,20.525V47.72a1.016,1.016,0,0,1-1.016,1.017H99.755a1.018,1.018,0,0,1-1.019-1.017V20.525a1.018,1.018,0,0,1,1.019-1.017h1.993a1.016,1.016,0,0,1,1.016,1.017" transform="translate(-54.218 17.871)" fill="#00728a"/>
    <path id="Path_11411" data-name="Path 11411" d="M96.926,20.525V65.689a1.018,1.018,0,0,1-1.017,1.019H93.915A1.018,1.018,0,0,1,92.9,65.689V20.525a1.018,1.018,0,0,1,1.017-1.017h1.993a1.018,1.018,0,0,1,1.017,1.017" transform="translate(-59.566 17.871)" fill="#00728a"/>
    <path id="Path_11412" data-name="Path 11412" d="M108.6,20.525V65.689a1.018,1.018,0,0,1-1.017,1.019h-1.993a1.018,1.018,0,0,1-1.017-1.019V20.525a1.018,1.018,0,0,1,1.017-1.017h1.993a1.018,1.018,0,0,1,1.017,1.017" transform="translate(-48.869 17.871)" fill="#00728a"/>
    <path id="Path_11413" data-name="Path 11413" d="M117.872,18.919v5.566a1.043,1.043,0,0,1-1.044,1.042h-4.974a1.044,1.044,0,0,1-1.044-1.042V18.919a1.045,1.045,0,0,1,1.044-1.044h4.974a1.044,1.044,0,0,1,1.044,1.044" transform="translate(-43.158 16.375)" fill="#00728a"/>
    <path id="Path_11414" data-name="Path 11414" d="M110.238,46.526h-5.566a1.04,1.04,0,0,1-1.042-1.042V40.507a1.043,1.043,0,0,1,1.042-1.042h5.566a1.043,1.043,0,0,1,1.042,1.042v4.976a1.04,1.04,0,0,1-1.042,1.042" transform="translate(-49.736 36.153)" fill="#00728a"/>
    <path id="Path_11415" data-name="Path 11415" d="M104.4,37.043H98.834A1.043,1.043,0,0,1,97.79,36V31.024a1.045,1.045,0,0,1,1.044-1.042H104.4a1.045,1.045,0,0,1,1.044,1.042V36a1.043,1.043,0,0,1-1.044,1.042" transform="translate(-55.084 27.466)" fill="#00728a"/>
    <path id="Path_11416" data-name="Path 11416" d="M98.561,46.526H92.994a1.04,1.04,0,0,1-1.042-1.042V40.507a1.043,1.043,0,0,1,1.042-1.042h5.566A1.043,1.043,0,0,1,99.6,40.507v4.976a1.04,1.04,0,0,1-1.042,1.042" transform="translate(-60.432 36.153)" fill="#00728a"/>
    <path id="Path_11417" data-name="Path 11417" d="M92.723,37.043H87.158A1.043,1.043,0,0,1,86.114,36V31.024a1.045,1.045,0,0,1,1.044-1.042h5.564a1.045,1.045,0,0,1,1.044,1.042V36a1.043,1.043,0,0,1-1.044,1.042" transform="translate(-65.781 27.466)" fill="#00728a"/>
  </g>
</svg>
