<svg xmlns="http://www.w3.org/2000/svg" width="76.016" height="76.016" viewBox="0 0 76.016 76.016">
  <g id="Group_11581" data-name="Group 11581" transform="translate(-793.783 -1276.688)">
    <path id="Path_11538" data-name="Path 11538" d="M192.338,366c-5.877,3.695-16.887,10.81-22.184,14.227-.575.365-1.07.695-1.487.96a11.789,11.789,0,0,0,2.832-4.332,18.763,18.763,0,0,0-.54-14.092l-.32-.708s-1.15.6-1.387.725L180.443,343.4c2,.188,10.152.948,20.327,1.9a5.182,5.182,0,0,0-.6.4l-.472.385.292.535c3.725,6.792.865,14.05-7.655,19.39m10.795-21.22c-12.822-1.2-23.089-2.155-23.089-2.155l-12.71,22.02s1.652-.895,2.96-1.578c3.21,7.095,1.51,16.63-4.645,19.237-6.252,2.645-13.075-3.1-15.787-10.552,0,0-.54.08-.817.155,1.452,4.615,8.39,16.092,18.695,10.75-.112.085,17.135-11.1,24.987-16.032,8.167-5.122,12.13-12.685,7.907-20.362a23.633,23.633,0,0,1,2.5-1.483" transform="translate(655.338 952.385)" fill="#00728a"/>
    <path id="Path_11539" data-name="Path 11539" d="M157.781,356.606l-2.82-.727s-.168,1.647-.31,2.4l3.187,2.94,3.172-1.77a14.723,14.723,0,0,0,1.29-5.045Z" transform="translate(663.748 970.056)" fill="#00728a"/>
    <path id="Path_11540" data-name="Path 11540" d="M163.1,357.754a18.423,18.423,0,0,0-.89-6.347l-5.027,2.35-3.027,1.763a12.736,12.736,0,0,1,1.55,4.865l3.285-.495Z" transform="translate(663.006 965.553)" fill="#00728a"/>
    <path id="Path_11541" data-name="Path 11541" d="M160.4,357.024l5.375-9.207-12.737,5.11-.355,3.282c1.66.947,3.59,4.46,3.59,4.46l1.79-2.575Z" transform="translate(660.794 960.168)" fill="#00728a"/>
    <path id="Path_11542" data-name="Path 11542" d="M169.62,348.209l.862-1.475-17.852,7.127c-2.885,1.128-1.85,5.337-1.85,5.337l2.06-.85c2.24-1.065,2.96-.513,2.96-.513l-.792-3.81Z" transform="translate(657.672 958.544)" fill="#00728a"/>
    <path id="Path_11543" data-name="Path 11543" d="M155.93,361.715c-.645.04-1.995-.653-3.182-2.37-1.087-1.582-1.705-3.63-.6-4.345.777-.508,2.415.59,3.435,2.212,1.755,2.83,1.09,4.447.35,4.5m-5.085-7.79C148.818,355.84,152,360.38,152,360.38c2.647,3.385,4.217,2.465,4.217,2.465l4.227-2.37a17.618,17.618,0,0,0-4.02-8.807Z" transform="translate(657.027 965.945)" fill="#00728a"/>
    <path id="Path_11544" data-name="Path 11544" d="M159.564,336.635a13.429,13.429,0,0,0-13.422,13.42v46.207a13.43,13.43,0,0,0,13.422,13.42H205.77a13.43,13.43,0,0,0,13.415-13.42V350.055a13.429,13.429,0,0,0-13.415-13.42Zm46.207,74.279H159.564a14.666,14.666,0,0,1-14.66-14.652V350.055a14.671,14.671,0,0,1,14.66-14.657H205.77a14.67,14.67,0,0,1,14.65,14.657v46.207a14.666,14.666,0,0,1-14.65,14.652" transform="translate(649.129 941.541)" fill="#00728a"/>
    <path id="Path_11545" data-name="Path 11545" d="M159.564,336.635a13.429,13.429,0,0,0-13.422,13.42v46.207a13.43,13.43,0,0,0,13.422,13.42H205.77a13.43,13.43,0,0,0,13.415-13.42V350.055a13.429,13.429,0,0,0-13.415-13.42Zm46.207,74.279H159.564a14.666,14.666,0,0,1-14.66-14.652V350.055a14.671,14.671,0,0,1,14.66-14.657H205.77a14.67,14.67,0,0,1,14.65,14.657v46.207a14.666,14.666,0,0,1-14.65,14.652" transform="translate(649.129 941.541)" fill="none" stroke="#00728a" stroke-width="0.5"/>
  </g>
</svg>
