<svg xmlns="http://www.w3.org/2000/svg" width="26.477" height="26.477" viewBox="0 0 26.477 26.477">
  <path id="linkedin" d="M8.275,21.875H4.655V10.188h3.62ZM8.636,6.464a2.12,2.12,0,1,0-2.119,2.12,2.12,2.12,0,0,0,2.119-2.12Zm13.187,8.981c0-3.137-.663-5.464-4.328-5.464a3.757,3.757,0,0,0-3.426,1.8h0v-1.59H10.55V21.875h3.517v-5.8c0-1.52.387-2.992,2.271-2.992,1.858,0,1.918,1.738,1.918,3.088v5.706h3.568Zm4.654,7.93V3.1a3.106,3.106,0,0,0-3.1-3.1H3.1A3.106,3.106,0,0,0,0,3.1V23.375a3.106,3.106,0,0,0,3.1,3.1H23.375A3.106,3.106,0,0,0,26.478,23.375Zm-3.1-21.306A1.035,1.035,0,0,1,24.409,3.1V23.375a1.035,1.035,0,0,1-1.034,1.034H3.1a1.035,1.035,0,0,1-1.034-1.034V3.1A1.035,1.035,0,0,1,3.1,2.069Zm0,0" transform="translate(0)"/>
</svg>
