<svg xmlns="http://www.w3.org/2000/svg" width="88.542" height="96.651" viewBox="0 0 88.542 96.651">
  <g id="Group_11486" data-name="Group 11486" transform="translate(0)">
    <path id="Path_11323" data-name="Path 11323" d="M11.085,121.723a44.3,44.3,0,0,0,2.953,6.683l2.345-1.28a41.48,41.48,0,0,1-2.771-6.277Z" transform="translate(-8.673 -54.743)" fill="#00728a"/>
    <path id="Path_11324" data-name="Path 11324" d="M16.826,127.12l-2.108,1.644a44.267,44.267,0,0,0,4.959,5.369l1.807-1.968a41.58,41.58,0,0,1-4.658-5.045" transform="translate(-5.345 -48.998)" fill="#00728a"/>
    <path id="Path_11325" data-name="Path 11325" d="M14.43,107.167l-2.529-.858a44.081,44.081,0,0,0-1.772,7.088l2.638.433a41.518,41.518,0,0,1,1.663-6.662" transform="translate(-9.549 -68.062)" fill="#00728a"/>
    <path id="Path_11326" data-name="Path 11326" d="M20.317,134.192a44.013,44.013,0,0,0,6.43,3.474l1.073-2.447a41.668,41.668,0,0,1-6.041-3.265Z" transform="translate(-0.216 -44.57)" fill="#00728a"/>
    <path id="Path_11327" data-name="Path 11327" d="M34.744,135.936l.22,2.665a44.637,44.637,0,0,0,7.21-1.2l-.657-2.592a41.621,41.621,0,0,1-6.773,1.13" transform="translate(13.001 -41.957)" fill="#00728a"/>
    <path id="Path_11328" data-name="Path 11328" d="M27.285,137.409A44.354,44.354,0,0,0,34.5,138.6l.217-2.665a41.4,41.4,0,0,1-6.777-1.115Z" transform="translate(6.168 -41.947)" fill="#00728a"/>
    <path id="Path_11329" data-name="Path 11329" d="M18.683,101.251l-2.113-1.638a44.711,44.711,0,0,0-3.989,6.126l2.355,1.268a41.574,41.574,0,0,1,3.748-5.756" transform="translate(-7.303 -74.196)" fill="#00728a"/>
    <path id="Path_11330" data-name="Path 11330" d="M12.5,113.807l-2.675,0a44.545,44.545,0,0,0,.613,7.281l2.635-.443a42.149,42.149,0,0,1-.573-6.842" transform="translate(-9.826 -61.194)" fill="#00728a"/>
    <path id="Path_11331" data-name="Path 11331" d="M57.783,113.249a43.827,43.827,0,0,0-1.818-7.08l-2.523.879a41.27,41.27,0,0,1,1.707,6.647Z" transform="translate(30.128 -68.191)" fill="#00728a"/>
    <path id="Path_11332" data-name="Path 11332" d="M46.2,94.372l-1.454,2.242a41.963,41.963,0,0,1,5.43,4.2l1.8-1.972A44.518,44.518,0,0,0,46.2,94.372" transform="translate(22.16 -78.997)" fill="#00728a"/>
    <path id="Path_11333" data-name="Path 11333" d="M41.668,135.206l1.075,2.447a44.145,44.145,0,0,0,6.421-3.485L47.7,131.931a41.418,41.418,0,0,1-6.03,3.275" transform="translate(19.344 -44.591)" fill="#00728a"/>
    <path id="Path_11334" data-name="Path 11334" d="M47.642,132.145l1.813,1.964a44.655,44.655,0,0,0,4.945-5.376l-2.108-1.644a42.233,42.233,0,0,1-4.65,5.057" transform="translate(24.816 -49.027)" fill="#00728a"/>
    <path id="Path_11335" data-name="Path 11335" d="M52.031,127.094l2.349,1.276a44.206,44.206,0,0,0,2.941-6.7l-2.531-.866a41.234,41.234,0,0,1-2.759,6.287" transform="translate(28.837 -54.781)" fill="#00728a"/>
    <path id="Path_11336" data-name="Path 11336" d="M24.46,96.682,22.99,94.45a44.581,44.581,0,0,0-5.752,4.507l1.818,1.96a41.528,41.528,0,0,1,5.4-4.235" transform="translate(-3.036 -78.926)" fill="#00728a"/>
    <path id="Path_11337" data-name="Path 11337" d="M54.907,113.849a42.126,42.126,0,0,1-.559,6.844l2.638.435a44.765,44.765,0,0,0,.6-7.241v-.222Z" transform="translate(30.959 -61.324)" fill="#00728a"/>
    <path id="Path_11338" data-name="Path 11338" d="M52.116,99.5l-2.1,1.65a41.684,41.684,0,0,1,3.782,5.733l2.347-1.286a44.494,44.494,0,0,0-4.028-6.1" transform="translate(26.989 -74.298)" fill="#00728a"/>
    <path id="Path_11339" data-name="Path 11339" d="M44.974,94.5a8.147,8.147,0,1,1-8.147-8.147A8.148,8.148,0,0,1,44.974,94.5" transform="translate(7.446 -86.348)" fill="#00728a"/>
    <path id="Path_11463" data-name="Path 11463" d="M65.144,107.123l-1.1-1.111V100.6a.549.549,0,0,0-.548-.552H21.483a.55.55,0,0,0-.55.552v26.055a.553.553,0,0,0,.55.552H63.5a.551.551,0,0,0,.548-.552v-5.415l1.1-1.109,1.769-1.784v-9.439ZM44.137,119.712a10.639,10.639,0,0,1-1.19,1.414,10.747,10.747,0,0,1-1.414,1.188,10.617,10.617,0,0,1-12.171,0,10.661,10.661,0,0,1-1.414-1.19,10.607,10.607,0,0,1-1.19-13.585,10.671,10.671,0,0,1,1.19-1.418,11.217,11.217,0,0,1,1.412-1.188,10.616,10.616,0,0,1,12.173,0,11.514,11.514,0,0,1,1.414,1.188,10.672,10.672,0,0,1,1.19,1.418,10.622,10.622,0,0,1,0,12.171m16.195,4.118H50.418v-1.747h9.914Zm0-4.666H50.418v-1.749h9.914Zm0-4.664H50.418v-1.751h9.914Zm0-4.662H50.418v-1.751h9.914Zm0-4.666H50.418v-1.751h9.914Zm-30.314,4.656a6.633,6.633,0,0,0,0,7.6,6.846,6.846,0,0,0,.464.586l1.364-1.362c-.09-.107-.176-.218-.255-.33a4.71,4.71,0,0,1,0-5.386c.079-.113.163-.224.253-.33l-1.364-1.36a5.976,5.976,0,0,0-.462.586m9.228-1.634a6.629,6.629,0,0,0-7.6,0,7.266,7.266,0,0,0-.586.466l1.362,1.36c.105-.086.217-.174.331-.255a4.707,4.707,0,0,1,5.384.006,4.047,4.047,0,0,1,.328.253l1.362-1.364q-.282-.247-.586-.466m-9.9,9.7a7.462,7.462,0,0,1,0-8.542,8.079,8.079,0,0,1,.556-.694l-1.069-1.073a9.841,9.841,0,0,0-.722.9,8.966,8.966,0,0,0,0,10.276,9.046,9.046,0,0,0,.72.9l1.069-1.069a7.8,7.8,0,0,1-.556-.7m6.107,2.355a6.563,6.563,0,0,0,3.794-1.194,5.727,5.727,0,0,0,.59-.466l-1.362-1.362c-.107.092-.218.176-.333.257a4.708,4.708,0,0,1-5.382,0,3.47,3.47,0,0,1-.328-.253l-1.362,1.362a5.416,5.416,0,0,0,.586.464,6.562,6.562,0,0,0,3.8,1.2m3.181-4.4a3.893,3.893,0,0,0,0-4.441c-.052-.071-.109-.148-.165-.217l-1.376,1.374a1.963,1.963,0,0,1,0,2.125l1.376,1.374c.056-.069.111-.14.161-.215m2.249,1.579a6.629,6.629,0,0,0,0-7.6,5.539,5.539,0,0,0-.464-.588l-1.362,1.36c.09.105.174.217.255.331a4.713,4.713,0,0,1,0,5.388c-.079.109-.163.22-.253.326l1.364,1.362a7.107,7.107,0,0,0,.462-.584m-9.7-9.906a7.462,7.462,0,0,1,8.542,0,6.779,6.779,0,0,1,.7.552l1.067-1.069a9.618,9.618,0,0,0-.9-.724,8.974,8.974,0,0,0-10.278,0,8.529,8.529,0,0,0-.9.72l1.067,1.069a7.15,7.15,0,0,1,.7-.556m1.088,3.884a3.889,3.889,0,0,0,0,4.441c.052.075.105.146.165.217l1.374-1.374a1.963,1.963,0,0,1,0-2.125l-1.374-1.376c-.057.071-.111.144-.163.217m3.183,6.1a3.829,3.829,0,0,0,2.215-.694c.077-.054.149-.111.22-.169l-1.372-1.372a1.977,1.977,0,0,1-2.127,0l-1.376,1.374c.073.056.144.109.218.161a3.833,3.833,0,0,0,2.221.7m0-5.838a1.9,1.9,0,0,1,1.063.314l1.372-1.378c-.069-.056-.142-.109-.215-.163a3.891,3.891,0,0,0-4.438,0c-.075.054-.148.109-.22.165l1.374,1.376a1.9,1.9,0,0,1,1.063-.312m4.269,8.063a7.457,7.457,0,0,1-8.542,0,7.466,7.466,0,0,1-.7-.554l-1.069,1.071a9.6,9.6,0,0,0,.9.72,8.965,8.965,0,0,0,10.278,0,9.577,9.577,0,0,0,.9-.72l-1.067-1.071a8.388,8.388,0,0,1-.7.556m2.351-12.144L41,108.66a7.184,7.184,0,0,1,.556.7,7.449,7.449,0,0,1,0,8.542,6.908,6.908,0,0,1-.554.7l1.071,1.069a9.045,9.045,0,0,0,.72-.9,8.965,8.965,0,0,0,0-10.278,9.732,9.732,0,0,0-.72-.9" transform="translate(0.349 -73.799)" fill="#00728a"/>
    <path id="Path_11464" data-name="Path 11464" d="M45.123,122.6H16.213a.29.29,0,0,0-.289.289v4.235a1.92,1.92,0,0,0,1.918,1.92h4.579v-2.023H18v-.774H43.333v.774H38.917v2.023H43.5a1.92,1.92,0,0,0,1.918-1.92v-4.235a.291.291,0,0,0-.291-.289M18,124.288H43.333v.772H18Zm31.213-6.016H16.254a.292.292,0,0,0-.289.291v1.516a.289.289,0,0,0,.289.289h3.162v1.552h3.232v-1.552H38.689v1.552h3.234v-1.552h7.294a.289.289,0,0,0,.289-.289v-1.516a.292.292,0,0,0-.289-.291M31.7,133.541v-6.553H29.637v6.553H28.246l2.424,2.307,2.422-2.307H31.7Zm-6.637,0v-6.553H23v6.553H21.607l2.424,2.307,2.424-2.307H25.064Zm13.275,0v-6.553H36.275v6.553H34.884l2.422,2.307,2.426-2.307H38.338Zm-9.28-6.524H25.642v2.025h3.416Zm6.637,0H32.282v2.025H35.7Z" transform="translate(-4.24 -57.103)" fill="#00728a"/>
    <path id="Path_11465" data-name="Path 11465" d="M65.706,122.6H36.8a.291.291,0,0,0-.291.289v4.235a1.921,1.921,0,0,0,1.92,1.92H43v-2.023H38.586v-.774H63.914v.774H59.5v2.023h4.577A1.921,1.921,0,0,0,66,127.12v-4.235a.292.292,0,0,0-.291-.289m-27.12,1.692H63.914v.772H38.586Zm27.08-6.016H32.7a.292.292,0,0,0-.291.291v1.516a.289.289,0,0,0,.291.289H40v1.552H43.23v-1.552H59.272v1.552h3.234v-1.552h3.16a.288.288,0,0,0,.289-.289v-1.516a.291.291,0,0,0-.289-.291M52.284,133.541v-6.553H50.218v6.553H48.827l2.426,2.307,2.422-2.307H52.284Zm-6.639,0v-6.553H43.583v6.553H42.19l2.424,2.307,2.422-2.307H45.644Zm13.275,0v-6.553H56.855v6.553H55.464l2.424,2.307,2.424-2.307H58.919Zm-9.28-6.524H46.225v2.025h3.414Zm6.639,0H52.862v2.025h3.416Z" transform="translate(10.864 -57.103)" fill="#00728a"/>
    <rect id="Rectangle_1370" data-name="Rectangle 1370" width="2.997" height="10.389" transform="translate(42.774 52.341)" fill="#00728a"/>
  </g>
</svg>
