<svg xmlns="http://www.w3.org/2000/svg" width="88.542" height="96.651" viewBox="0 0 88.542 96.651">
  <g id="Group_11482" data-name="Group 11482" transform="translate(0)">
    <path id="Path_11305" data-name="Path 11305" d="M11.086,35.374a44.3,44.3,0,0,0,2.951,6.683l2.347-1.28A41.552,41.552,0,0,1,13.611,34.5Z" transform="translate(-8.673 31.606)" fill="#00728a"/>
    <path id="Path_11306" data-name="Path 11306" d="M16.825,40.772l-2.106,1.646a44.1,44.1,0,0,0,4.957,5.369l1.807-1.968a41.454,41.454,0,0,1-4.658-5.047" transform="translate(-5.346 37.35)" fill="#00728a"/>
    <path id="Path_11307" data-name="Path 11307" d="M14.431,20.819,11.9,19.961a44.279,44.279,0,0,0-1.77,7.088l2.637.433a41.523,41.523,0,0,1,1.665-6.662" transform="translate(-9.55 18.286)" fill="#00728a"/>
    <path id="Path_11308" data-name="Path 11308" d="M20.317,47.844a43.938,43.938,0,0,0,6.43,3.476l1.073-2.447a41.681,41.681,0,0,1-6.041-3.267Z" transform="translate(-0.217 41.778)" fill="#00728a"/>
    <path id="Path_11309" data-name="Path 11309" d="M34.745,49.588l.218,2.665a44.656,44.656,0,0,0,7.212-1.2l-.659-2.592a41.631,41.631,0,0,1-6.771,1.13" transform="translate(13 44.391)" fill="#00728a"/>
    <path id="Path_11310" data-name="Path 11310" d="M27.285,51.061A44.384,44.384,0,0,0,34.5,52.249l.215-2.665a41.374,41.374,0,0,1-6.775-1.115Z" transform="translate(6.166 44.401)" fill="#00728a"/>
    <path id="Path_11311" data-name="Path 11311" d="M18.682,14.9l-2.113-1.638a44.52,44.52,0,0,0-3.987,6.126l2.353,1.268A41.574,41.574,0,0,1,18.682,14.9" transform="translate(-7.304 12.152)" fill="#00728a"/>
    <path id="Path_11312" data-name="Path 11312" d="M12.5,27.459l-2.673,0a44.544,44.544,0,0,0,.611,7.281l2.635-.443a42.15,42.15,0,0,1-.573-6.842" transform="translate(-9.827 25.154)" fill="#00728a"/>
    <path id="Path_11313" data-name="Path 11313" d="M57.785,26.9a44.026,44.026,0,0,0-1.818-7.08l-2.525.879a41.477,41.477,0,0,1,1.709,6.647Z" transform="translate(30.127 18.158)" fill="#00728a"/>
    <path id="Path_11314" data-name="Path 11314" d="M46.2,8.024l-1.454,2.244a41.781,41.781,0,0,1,5.43,4.2l1.8-1.97A44.513,44.513,0,0,0,46.2,8.024" transform="translate(22.159 7.351)" fill="#00728a"/>
    <path id="Path_11315" data-name="Path 11315" d="M41.668,48.858,42.745,51.3a44.225,44.225,0,0,0,6.419-3.485L47.7,45.583a41.42,41.42,0,0,1-6.03,3.275" transform="translate(19.342 41.757)" fill="#00728a"/>
    <path id="Path_11316" data-name="Path 11316" d="M47.642,45.8l1.813,1.964A44.656,44.656,0,0,0,54.4,42.384L52.292,40.74a41.916,41.916,0,0,1-4.65,5.057" transform="translate(24.814 37.321)" fill="#00728a"/>
    <path id="Path_11317" data-name="Path 11317" d="M52.031,40.746l2.349,1.276a44.016,44.016,0,0,0,2.941-6.7l-2.531-.866a41.046,41.046,0,0,1-2.759,6.287" transform="translate(28.835 31.567)" fill="#00728a"/>
    <path id="Path_11318" data-name="Path 11318" d="M24.46,10.335,22.99,8.1a44.711,44.711,0,0,0-5.752,4.507l1.818,1.96a41.787,41.787,0,0,1,5.4-4.235" transform="translate(-3.038 7.423)" fill="#00728a"/>
    <path id="Path_11319" data-name="Path 11319" d="M54.909,27.5a42.127,42.127,0,0,1-.561,6.844l2.638.435a44.765,44.765,0,0,0,.6-7.241l0-.222Z" transform="translate(30.958 25.024)" fill="#00728a"/>
    <path id="Path_11320" data-name="Path 11320" d="M52.118,13.154l-2.1,1.65A41.509,41.509,0,0,1,53.8,20.537l2.347-1.286a44.659,44.659,0,0,0-4.026-6.1" transform="translate(26.987 12.05)" fill="#00728a"/>
    <path id="Path_11321" data-name="Path 11321" d="M44.974,8.147A8.147,8.147,0,1,1,36.827,0a8.147,8.147,0,0,1,8.147,8.147" transform="translate(7.444)" fill="#00728a"/>
    <path id="Path_11322" data-name="Path 11322" d="M71.69,59.245a30.156,30.156,0,0,1-7.339,7.339A29.928,29.928,0,0,1,34.869,69.32l.029-.075h-.19a29.569,29.569,0,0,1-4.629-2.661,30.156,30.156,0,0,1-7.339-7.339,29.893,29.893,0,0,1,0-34.273,30.067,30.067,0,0,1,7.339-7.339,29.9,29.9,0,0,1,34.273,0,30.067,30.067,0,0,1,7.339,7.339,29.9,29.9,0,0,1,0,34.273M62.227,31.6,57.335,35.02c-2.686,1.885-5.093,3.16-5.342,2.834l-.261-.263-.264-.263c-.324-.251.952-2.656,2.834-5.342l3.424-4.894a5.016,5.016,0,0,0-1.91-7.567,20.807,20.807,0,0,0-8.6-1.713,20.792,20.792,0,0,0-8.6,1.713A5.017,5.017,0,0,0,36.7,27.093l3.426,4.894c1.88,2.686,3.158,5.091,2.832,5.342l-.263.263-.263.263c-.249.326-2.654-.948-5.342-2.834L32.2,31.6a5.019,5.019,0,0,0-7.567,1.91,20.779,20.779,0,0,0-1.717,8.6,20.784,20.784,0,0,0,1.717,8.6,5.019,5.019,0,0,0,7.567,1.91L37.094,49.2c2.688-1.885,5.093-3.16,5.342-2.834l.263.263.263.263c.326.247-.952,2.654-2.832,5.344L36.7,57.12a5.021,5.021,0,0,0,1.912,7.57,20.792,20.792,0,0,0,8.6,1.713,20.807,20.807,0,0,0,8.6-1.713,5.019,5.019,0,0,0,1.91-7.57L54.3,52.232c-1.882-2.69-3.158-5.1-2.834-5.344l.264-.263.261-.263c.249-.326,2.656.948,5.342,2.834l4.892,3.424a5.023,5.023,0,0,0,7.57-1.91,20.822,20.822,0,0,0,1.713-8.6,20.818,20.818,0,0,0-1.713-8.6,5.023,5.023,0,0,0-7.57-1.91M49.539,43.734a2.525,2.525,0,0,1-.32.377,2.832,2.832,0,0,1-3.631.318,2.719,2.719,0,0,1-.377-.318,2.513,2.513,0,0,1-.318-.377,2.83,2.83,0,0,1,0-3.252,2.868,2.868,0,0,1,.318-.381,3.186,3.186,0,0,1,.377-.318,2.854,2.854,0,0,1,3.255,0,3.326,3.326,0,0,1,.376.318,2.883,2.883,0,0,1,.32.381,2.83,2.83,0,0,1,0,3.252" transform="translate(-2.943 11.209)" fill="#00728a"/>
  </g>
</svg>
