<svg xmlns="http://www.w3.org/2000/svg" width="75.5" height="75.5" viewBox="0 0 75.5 75.5">
  <g id="Group_11711" data-name="Group 11711" transform="translate(-1383.75 -1180.688)">
    <g id="Group_11577" data-name="Group 11577" transform="translate(98.12 -91.367)">
      <path id="Path_11684" data-name="Path 11684" d="M349.971,361.194h2.276l1.158,5.045,1.323-5.077h1.924l1.335,5.091,1.178-5.059h2.244l-2.292,8.589h-2.083l-1.351-5.057-1.385,5.057h-2.067Z" transform="translate(954.993 968.447)" fill="#00728a"/>
      <path id="Path_11685" data-name="Path 11685" d="M356.478,359.706h2.352v2.053h-2.352Zm.048,2.96h2.26v8.527h-2.26Z" transform="translate(961.569 966.976)" fill="#00728a"/>
      <rect id="Rectangle_1390" data-name="Rectangle 1390" width="4.661" height="2.196" transform="translate(1322.489 1332.138)" fill="#00728a"/>
      <path id="Path_11686" data-name="Path 11686" d="M362.122,359.88H369.3V362h-4.868v2.5h4.281v2.117h-4.281v4.405h-2.306Z" transform="translate(967.274 967.151)" fill="#00728a"/>
      <path id="Path_11687" data-name="Path 11687" d="M366.61,359.706h2.352v2.053H366.61Zm.048,2.96h2.26v8.527h-2.26Z" transform="translate(971.809 966.976)" fill="#00728a"/>
      <path id="Path_11688" data-name="Path 11688" d="M371.9,337.175a36.044,36.044,0,0,1,22.348,7.849,26.261,26.261,0,0,1,2.449,2.188,2.639,2.639,0,0,1-3.707,3.75,30.3,30.3,0,0,0-40.061-1.713c-.746.589-1.432,1.259-2.165,1.868a2.643,2.643,0,0,1-3.565-3.876,29.558,29.558,0,0,1,4.321-3.579,35.637,35.637,0,0,1,15.7-6.141c1.594-.219,3.2-.289,4.683-.346" transform="translate(951.433 944.206)" fill="#00728a"/>
      <path id="Path_11689" data-name="Path 11689" d="M368.663,342.021A25.858,25.858,0,0,1,385.225,348a19.689,19.689,0,0,1,1.6,1.47,2.521,2.521,0,0,1-.147,3.653,2.486,2.486,0,0,1-3.569.066,20.589,20.589,0,0,0-11.4-5.678,20.362,20.362,0,0,0-16.039,4.381c-.485.38-.925.818-1.375,1.245a2.558,2.558,0,0,1-3.738-.036,2.526,2.526,0,0,1,.03-3.77,25.843,25.843,0,0,1,14.687-7.093,22.473,22.473,0,0,1,3.388-.215" transform="translate(954.748 949.1)" fill="#00728a"/>
      <path id="Path_11690" data-name="Path 11690" d="M365.293,352.113a10.747,10.747,0,0,0-7.67,3.189,2.544,2.544,0,0,1-3.193.509,2.839,2.839,0,0,1-1.321-3.088,3.023,3.023,0,0,1,.923-1.337,16.269,16.269,0,0,1,22.762.2,2.531,2.531,0,0,1-.109,3.816,2.577,2.577,0,0,1-3.575-.038,10.987,10.987,0,0,0-6.281-3.169c-.511-.076-1.023-.05-1.536-.084" transform="translate(958.075 953.973)" fill="#00728a"/>
      <path id="Path_11691" data-name="Path 11691" d="M362,351.315a5.594,5.594,0,0,1,5.589,5.654A5.627,5.627,0,1,1,362,351.315" transform="translate(961.423 958.496)" fill="#00728a"/>
    </g>
    <path id="Path_11536" data-name="Path 11536" d="M302.118,336.639a13.333,13.333,0,0,0-13.322,13.32v45.878a13.337,13.337,0,0,0,13.322,13.325H348a13.334,13.334,0,0,0,13.317-13.325V349.959A13.33,13.33,0,0,0,348,336.639ZM348,410.4H302.118a14.576,14.576,0,0,1-14.56-14.561V349.959a14.581,14.581,0,0,1,14.56-14.561H348a14.578,14.578,0,0,1,14.555,14.561v45.878A14.573,14.573,0,0,1,348,410.4" transform="translate(1096.442 845.541)" fill="#00728a"/>
    <path id="Path_11537" data-name="Path 11537" d="M302.118,336.639a13.333,13.333,0,0,0-13.322,13.32v45.878a13.337,13.337,0,0,0,13.322,13.325H348a13.334,13.334,0,0,0,13.317-13.325V349.959A13.33,13.33,0,0,0,348,336.639ZM348,410.4H302.118a14.576,14.576,0,0,1-14.56-14.561V349.959a14.581,14.581,0,0,1,14.56-14.561H348a14.578,14.578,0,0,1,14.555,14.561v45.878A14.573,14.573,0,0,1,348,410.4" transform="translate(1096.442 845.541)" fill="none" stroke="#00728a" stroke-width="0.5"/>
  </g>
</svg>
