<svg xmlns="http://www.w3.org/2000/svg" width="76.782" height="63.065" viewBox="0 0 76.782 63.065">
  <g id="Group_11317" data-name="Group 11317" transform="translate(-718.589 -2300)">
    <g id="speaker-silent-outline-with-a-cross" transform="translate(718.589 2248.552)">
      <g id="Group_11305" data-name="Group 11305" transform="translate(0 51.448)">
        <path id="Path_11234" data-name="Path 11234" d="M8.213,100.372h7.7L37.176,113.7a7.707,7.707,0,0,0,11.808-6.535v-47.5a7.708,7.708,0,0,0-11.809-6.535l-21.218,13.3H8.213A7.721,7.721,0,0,0,.5,74.14V92.66A7.721,7.721,0,0,0,8.213,100.372Zm-2-26.232a2,2,0,0,1,2-2h8.006a4.8,4.8,0,0,0,2.551-.733L40.209,57.968a1.98,1.98,0,0,1,1.058-.309,2,2,0,0,1,2.006,2v47.5a2,2,0,0,1-2.006,2,1.98,1.98,0,0,1-1.058-.309L18.726,95.395a4.8,4.8,0,0,0-2.551-.733H8.213a2,2,0,0,1-2-2V74.14Z" transform="translate(-0.433 -51.881)"/>
        <path id="Path_11235" data-name="Path 11235" d="M40.834,114.513a7.764,7.764,0,0,1-4.127-1.191L15.462,100.006H7.779A7.788,7.788,0,0,1,0,92.227V73.707a7.788,7.788,0,0,1,7.779-7.779h7.726l21.2-13.289A7.774,7.774,0,0,1,48.618,59.23v47.5a7.781,7.781,0,0,1-7.784,7.783ZM7.779,66.061A7.655,7.655,0,0,0,.133,73.707V92.227a7.655,7.655,0,0,0,7.646,7.646H15.5l.016.01,21.261,13.326a7.641,7.641,0,0,0,11.706-6.479V59.23a7.642,7.642,0,0,0-11.706-6.478L15.544,66.061H7.779ZM40.834,108.8a2.057,2.057,0,0,1-1.094-.319L18.258,95.018a4.731,4.731,0,0,0-2.516-.723H7.779a2.071,2.071,0,0,1-2.068-2.068V73.707a2.071,2.071,0,0,1,2.068-2.068h8.006a4.73,4.73,0,0,0,2.516-.723L39.74,57.478a2.064,2.064,0,0,1,3.166,1.752v47.5A2.074,2.074,0,0,1,40.834,108.8ZM7.779,71.772a1.937,1.937,0,0,0-1.935,1.935V92.227a1.937,1.937,0,0,0,1.935,1.935h7.963a4.864,4.864,0,0,1,2.587.744L39.811,108.37a1.931,1.931,0,0,0,2.962-1.639V59.23a1.931,1.931,0,0,0-2.962-1.639L18.372,71.029a4.864,4.864,0,0,1-2.587.744Z" transform="translate(0 -51.448)"/>
      </g>
      <g id="Group_11306" data-name="Group 11306" transform="translate(56.076 72.627)">
        <path id="Path_11236" data-name="Path 11236" d="M421.962,230.552a2.856,2.856,0,0,0,4.038,0l5.413-5.412,5.412,5.412a2.856,2.856,0,1,0,4.038-4.038l-5.413-5.412,5.412-5.412a2.856,2.856,0,1,0-4.038-4.038l-5.412,5.412L426,211.651a2.856,2.856,0,0,0-4.038,4.038l5.412,5.412-5.412,5.412A2.856,2.856,0,0,0,421.962,230.552Z" transform="translate(-421.061 -210.748)" fill="#07a9b1"/>
        <path id="Path_11237" data-name="Path 11237" d="M438.423,231.022a2.9,2.9,0,0,1-2.066-.856l-5.365-5.365-5.365,5.365a2.922,2.922,0,0,1-4.133-4.133l5.365-5.365-5.365-5.365a2.922,2.922,0,0,1,4.133-4.133l5.365,5.365,5.365-5.365a2.922,2.922,0,0,1,4.133,4.133l-5.365,5.365,5.365,5.365a2.922,2.922,0,0,1-2.066,4.989Zm-7.432-6.41,5.46,5.46a2.789,2.789,0,0,0,3.944-3.944l-5.46-5.459,5.46-5.46a2.789,2.789,0,0,0-3.944-3.944l-5.46,5.46-5.46-5.46a2.789,2.789,0,0,0-3.944,3.944l5.46,5.46-5.46,5.46a2.789,2.789,0,0,0,3.944,3.944Z" transform="translate(-420.639 -210.314)" fill="#07a9b1"/>
      </g>
    </g>
  </g>
</svg>
