<svg xmlns="http://www.w3.org/2000/svg" width="74.546" height="74.546" viewBox="0 0 74.546 74.546">
  <g id="Group_11582" data-name="Group 11582" transform="translate(-676.955 -1276.688)">
    <path id="Path_11518" data-name="Path 11518" d="M132.986,342.464a1.029,1.029,0,0,0-.63.212l-.875.708a1.013,1.013,0,0,0-.385.7,1.041,1.041,0,0,0,1.682.923l.873-.7a1.042,1.042,0,0,0,.163-1.465,1.021,1.021,0,0,0-.8-.377h-.025Zm1.385.95a1.036,1.036,0,0,0-.382.7,1,1,0,0,0,.228.76.98.98,0,0,0,.79.385,1.067,1.067,0,0,0,.547-.155l.175-.108v-2.66Zm-6.917,1.657a1.074,1.074,0,0,0-.65.225l-.87.7a1.1,1.1,0,0,0-.163,1.457,1.008,1.008,0,0,0,.807.39,1.046,1.046,0,0,0,.65-.225l.88-.7a1.04,1.04,0,0,0,.16-1.457,1,1,0,0,0-.338-.277,1.12,1.12,0,0,0-.477-.117m2.78.257a1.057,1.057,0,0,0-.652.228l-.872.7a1.037,1.037,0,0,0,.647,1.85,1.061,1.061,0,0,0,.648-.225l.88-.7a1.029,1.029,0,0,0,.38-.7,1,1,0,0,0-.225-.763,1.015,1.015,0,0,0-.8-.388m2.77.462a.99.99,0,0,0-.642.233l-.88.7a1.057,1.057,0,0,0-.385.7,1.046,1.046,0,0,0,1.682.927l.873-.7a1.033,1.033,0,0,0,.163-1.457,1.021,1.021,0,0,0-.81-.4m1.367.963a1.047,1.047,0,0,0-.382.7,1.019,1.019,0,0,0,.228.765,1,1,0,0,0,.79.377,1.084,1.084,0,0,0,.547-.147l.175-.105v-2.665ZM121.9,348.108a1.044,1.044,0,0,0-.64.22l-.885.7a1.062,1.062,0,0,0-.377.7,1.006,1.006,0,0,0,.22.755,1.027,1.027,0,0,0,.813.393,1.054,1.054,0,0,0,.645-.225l.88-.7a1.05,1.05,0,0,0,.163-1.465,1.07,1.07,0,0,0-.677-.375Zm3.745,1.635a1.19,1.19,0,0,0-.095.313,1.032,1.032,0,0,0,.225.767,1.017,1.017,0,0,0,.807.385,1.053,1.053,0,0,0,.655-.222l.875-.7a1.038,1.038,0,0,0,.38-.69,1.017,1.017,0,0,0-.22-.768,1.033,1.033,0,0,0-.81-.392,1.1,1.1,0,0,0-.655.233l-.87.7a.817.817,0,0,0-.2.208,1.065,1.065,0,0,0-.135-1.082,1.043,1.043,0,0,0-.81-.387,1.09,1.09,0,0,0-.652.225l-.877.7a1.04,1.04,0,0,0-.385.7,1.01,1.01,0,0,0,.225.755,1.037,1.037,0,0,0,1.457.168l.88-.7a1.252,1.252,0,0,0,.2-.212m4.592-1.075a1.054,1.054,0,0,0-.652.225l-.872.7a1.039,1.039,0,0,0,.647,1.85,1,1,0,0,0,.648-.238l.88-.7a1.036,1.036,0,0,0,.155-1.46,1.02,1.02,0,0,0-.8-.385m2.77.465a1.014,1.014,0,0,0-.642.227l-.88.7a1.033,1.033,0,0,0-.167,1.452,1.022,1.022,0,0,0,1.465.167l.873-.7a1.027,1.027,0,0,0,.163-1.452,1.014,1.014,0,0,0-.81-.395m1.367.965a1.03,1.03,0,0,0-.382.69,1.042,1.042,0,0,0,1.017,1.147,1.059,1.059,0,0,0,.547-.147l.175-.105v-2.667Zm-17.737.633a1,1,0,0,0-.625.222l-.875.7a1.015,1.015,0,0,0-.385.7.993.993,0,0,0,.22.76,1.006,1.006,0,0,0,.81.387,1.024,1.024,0,0,0,.647-.225l.88-.7a1.014,1.014,0,0,0,.385-.693,1.008,1.008,0,0,0-.762-1.107Zm3.537,1.86a1.049,1.049,0,0,0-.177.472,1.028,1.028,0,0,0,1.032,1.155,1.081,1.081,0,0,0,.645-.22l.88-.705a1.037,1.037,0,0,0-.655-1.847,1.007,1.007,0,0,0-.64.227l-.855.68a1.054,1.054,0,0,0-.04-1.245,1.06,1.06,0,0,0-.81-.388,1.04,1.04,0,0,0-.647.228l-.877.7a1.012,1.012,0,0,0-.382.7.992.992,0,0,0,.217.76,1,1,0,0,0,.81.387,1.041,1.041,0,0,0,.65-.225Zm4.62-1.145a1.046,1.046,0,0,0-.652.227l-.877.7a1.036,1.036,0,0,0-.16,1.465,1.033,1.033,0,0,0,.812.383,1.048,1.048,0,0,0,.645-.22l.88-.705a1.041,1.041,0,0,0,.162-1.457,1.023,1.023,0,0,0-.81-.39m2.667.352a1.055,1.055,0,0,0-.647.225l-.877.7a1.04,1.04,0,0,0-.163,1.46,1.015,1.015,0,0,0,.807.39,1.036,1.036,0,0,0,.65-.23l.88-.7a1.038,1.038,0,0,0-.65-1.85m2.775.208a1.047,1.047,0,0,0-.652.232l-.872.695a1.014,1.014,0,0,0-.387.7,1.036,1.036,0,0,0,.225.762,1.042,1.042,0,0,0,1.457.163l.88-.7a1.018,1.018,0,0,0,.38-.69.987.987,0,0,0-.225-.765,1.022,1.022,0,0,0-.8-.395m2.77.465a1.043,1.043,0,0,0-.642.227l-.88.7a1.035,1.035,0,0,0-.385.7,1.06,1.06,0,0,0,.217.765,1.044,1.044,0,0,0,.817.385,1.02,1.02,0,0,0,.647-.225l.873-.7a1.04,1.04,0,0,0-.647-1.85m1.367.965a1.042,1.042,0,0,0-.382.7,1.016,1.016,0,0,0,.228.767.985.985,0,0,0,.79.382,1.066,1.066,0,0,0,.547-.155l.175-.1v-2.67Zm-22.779-.035-1.34.7v1.93l.467-.148a1.171,1.171,0,0,0,.332-.177l.878-.7a1.037,1.037,0,0,0,.157-1.458l-.185-.185Zm2.217.355a1.015,1.015,0,0,0-.647.23l-.877.7a1.037,1.037,0,0,0,.652,1.847.969.969,0,0,0,.643-.225l.882-.7a1.052,1.052,0,0,0,.377-.7,1,1,0,0,0-.22-.76,1.036,1.036,0,0,0-.81-.395m2.842.318a1.036,1.036,0,0,0-.643.225l-.875.695a1.036,1.036,0,0,0,.645,1.85,1.054,1.054,0,0,0,.647-.225l.88-.7a1.038,1.038,0,0,0,.16-1.458,1.014,1.014,0,0,0-.815-.385m3.512,1.877a1.04,1.04,0,0,0,.862,1.613,1.057,1.057,0,0,0,.645-.227l.88-.7a1.039,1.039,0,0,0-1.295-1.625l-.842.675a1.137,1.137,0,0,0,.165-.468,1.036,1.036,0,0,0-1.675-.92l-.877.695a1.036,1.036,0,0,0,.645,1.85,1.084,1.084,0,0,0,.65-.225Zm4.627-1.165a1.091,1.091,0,0,0-.652.225l-.877.7a1.013,1.013,0,0,0-.385.7.992.992,0,0,0,.225.755,1.029,1.029,0,0,0,1.457.17l.88-.7a1.041,1.041,0,0,0,.162-1.457,1.026,1.026,0,0,0-.81-.392m2.667.372a1.114,1.114,0,0,0-.655.23l-.87.7a1.08,1.08,0,0,0-.387.695,1.042,1.042,0,0,0,1.032,1.155,1.056,1.056,0,0,0,.655-.225l.875-.7a1.032,1.032,0,0,0,.38-.695,1.008,1.008,0,0,0-.22-.765,1.049,1.049,0,0,0-.81-.393m2.775.193a1.051,1.051,0,0,0-.652.222l-.872.705a.993.993,0,0,0-.387.69,1.045,1.045,0,0,0,.225.767,1.028,1.028,0,0,0,.81.388A1.06,1.06,0,0,0,130,357.9l.88-.7a1,1,0,0,0,.38-.7.981.981,0,0,0-.225-.758,1.015,1.015,0,0,0-.8-.388m2.77.465a1.011,1.011,0,0,0-.642.225l-.88.7a1.011,1.011,0,0,0-.385.7,1.042,1.042,0,0,0,.217.755,1.076,1.076,0,0,0,.817.392,1.1,1.1,0,0,0,.647-.225l.873-.7a1.042,1.042,0,0,0,.163-1.465,1.029,1.029,0,0,0-.81-.388m1.367.962a1.042,1.042,0,0,0-.382.69,1.01,1.01,0,0,0,.228.767.985.985,0,0,0,.79.382,1.106,1.106,0,0,0,.547-.145l.175-.1V355.7Zm-23.094-.288a1.046,1.046,0,0,0-.648.235l-.378.3v2.342l.467-.155a1.1,1.1,0,0,0,.332-.172l.878-.7a1.036,1.036,0,0,0,.157-1.457,1.014,1.014,0,0,0-.81-.4m2.532.615a1.087,1.087,0,0,0-.647.225l-.877.705a1.038,1.038,0,0,0-.162,1.455,1.049,1.049,0,0,0,.815.395,1.018,1.018,0,0,0,.643-.233l.882-.7a1.03,1.03,0,0,0,.158-1.452,1.041,1.041,0,0,0-.81-.393m2.842.31a1.032,1.032,0,0,0-.643.23l-.875.7a1.036,1.036,0,0,0,.645,1.847,1,1,0,0,0,.647-.233l.88-.7a1.036,1.036,0,0,0-.655-1.845m3.507,1.885a1.026,1.026,0,0,0,.055,1.21,1.008,1.008,0,0,0,.813.388,1.021,1.021,0,0,0,.645-.222l.88-.7a1.039,1.039,0,0,0,.163-1.455,1.075,1.075,0,0,0-.817-.387,1,1,0,0,0-.64.225l-.837.66a1.129,1.129,0,0,0,.16-.447,1.024,1.024,0,0,0-.218-.765,1.052,1.052,0,0,0-.81-.388,1.014,1.014,0,0,0-.647.23l-.877.7a1.034,1.034,0,0,0-.165,1.457,1.02,1.02,0,0,0,.81.39,1.031,1.031,0,0,0,.65-.233Zm4.632-1.17a1.044,1.044,0,0,0-.652.225l-.877.69a1.08,1.08,0,0,0-.385.7,1.041,1.041,0,0,0,1.037,1.15.992.992,0,0,0,.645-.222l.88-.7a1.034,1.034,0,0,0-.648-1.842m2.667.395a1.066,1.066,0,0,0-.655.23l-.87.7a1.068,1.068,0,0,0-.387.7,1.02,1.02,0,0,0,.225.76,1,1,0,0,0,.807.388,1.027,1.027,0,0,0,.655-.225l.875-.7a1.039,1.039,0,0,0-.65-1.848m2.775.163a1.1,1.1,0,0,0-.652.222l-.872.7a1.042,1.042,0,0,0,.647,1.853,1.023,1.023,0,0,0,.648-.232l.88-.7a1.04,1.04,0,0,0,.38-.7.993.993,0,0,0-.225-.762,1.028,1.028,0,0,0-.8-.392m2.77.465a1.03,1.03,0,0,0-.642.23l-.88.7a1.011,1.011,0,0,0-.385.7,1.03,1.03,0,0,0,1.035,1.152,1.022,1.022,0,0,0,.647-.228l.873-.7a1.039,1.039,0,0,0-.647-1.848m1.367.967a1.036,1.036,0,0,0-.382.693,1.022,1.022,0,0,0,.228.768.993.993,0,0,0,.79.382,1.07,1.07,0,0,0,.547-.157l.175-.1v-2.665Zm-23.094-.282a1.1,1.1,0,0,0-.648.222l-.378.308v2.345l.467-.155a1.166,1.166,0,0,0,.332-.175l.878-.695a1.045,1.045,0,0,0,.157-1.465,1,1,0,0,0-.81-.385m2.532.622a1,1,0,0,0-.647.225l-.877.7a1.033,1.033,0,0,0,.647,1.842,1,1,0,0,0,.648-.225l.882-.7a1.041,1.041,0,0,0,.377-.695.993.993,0,0,0-.22-.763,1.014,1.014,0,0,0-.81-.388m2.847.305a1.042,1.042,0,0,0-.647.222l-.875.7a1.035,1.035,0,0,0-.165,1.457,1.014,1.014,0,0,0,.81.388,1.065,1.065,0,0,0,.647-.22l.88-.7a1.014,1.014,0,0,0,.385-.695,1.041,1.041,0,0,0-1.035-1.147m3.492,1.877a1.031,1.031,0,0,0-.155.445,1.018,1.018,0,0,0,.22.765,1.029,1.029,0,0,0,.813.395,1.119,1.119,0,0,0,.645-.225l.88-.7a1.04,1.04,0,0,0-1.295-1.627l-.832.665a1.1,1.1,0,0,0,.155-.445,1.029,1.029,0,0,0-1.027-1.147,1.032,1.032,0,0,0-.647.222l-.877.7a1.035,1.035,0,0,0-.165,1.457,1.01,1.01,0,0,0,.81.388,1.084,1.084,0,0,0,.65-.22Zm4.642-1.175a1.074,1.074,0,0,0-.652.225l-.877.7a1.043,1.043,0,0,0,.652,1.852,1.083,1.083,0,0,0,.645-.225l.88-.7a1.042,1.042,0,0,0,.162-1.457,1.028,1.028,0,0,0-.81-.4m3.6,1.915a1.04,1.04,0,0,0,1.612,1.2l.88-.7a1.029,1.029,0,0,0,.38-.7,1.007,1.007,0,0,0-.225-.765,1.023,1.023,0,0,0-.8-.387,1.083,1.083,0,0,0-.652.222l-.872.7a1.1,1.1,0,0,0-.287.357,1.053,1.053,0,0,0-.153-1.03,1.035,1.035,0,0,0-.81-.4,1.072,1.072,0,0,0-.647.228l-.877.7a1.057,1.057,0,0,0-.387.7,1.039,1.039,0,0,0,.225.763,1.044,1.044,0,0,0,1.457.16l.88-.7a1.074,1.074,0,0,0,.282-.358M133,362.5a1.013,1.013,0,0,0-.642.228l-.88.7a1.012,1.012,0,0,0-.385.7,1.026,1.026,0,0,0,1.035,1.147,1.047,1.047,0,0,0,.647-.223l.873-.7a1.038,1.038,0,0,0,.163-1.462,1.024,1.024,0,0,0-.81-.39m1.367.965a1.028,1.028,0,0,0-.155,1.457.985.985,0,0,0,.79.382,1.107,1.107,0,0,0,.547-.145l.175-.108v-2.67Zm-23.094-.283a1.066,1.066,0,0,0-.648.225l-.378.307v2.34l.467-.155a1.091,1.091,0,0,0,.332-.165l.878-.7a1.043,1.043,0,0,0,.157-1.462,1.016,1.016,0,0,0-.81-.39m2.532.625a1.032,1.032,0,0,0-.647.232l-.877.693a1.037,1.037,0,0,0,.652,1.85.938.938,0,0,0,.643-.232l.882-.695a1.039,1.039,0,0,0-.652-1.848m2.842.3a1.054,1.054,0,0,0-.643.227l-.875.7a1.025,1.025,0,0,0-.385.7.991.991,0,0,0,.22.758,1.021,1.021,0,0,0,.81.395.99.99,0,0,0,.647-.233l.88-.695a1.042,1.042,0,0,0-.655-1.852m3.5,1.895a1.037,1.037,0,0,0,.878,1.588,1.044,1.044,0,0,0,.645-.23l.88-.7a1.04,1.04,0,0,0-1.295-1.627l-.827.665a.994.994,0,0,0,.15-.437,1.018,1.018,0,0,0-.218-.763,1.033,1.033,0,0,0-1.457-.165l-.877.7a1.035,1.035,0,0,0-.165,1.457,1.027,1.027,0,0,0,1.46.162Zm4.642-1.192a1.09,1.09,0,0,0-.652.225l-.877.7a1.035,1.035,0,0,0-.385.7,1,1,0,0,0,.225.758,1.027,1.027,0,0,0,1.457.165l.88-.7a1.042,1.042,0,0,0-.648-1.852m3.572,2a1.027,1.027,0,0,0,.182.953,1.032,1.032,0,0,0,1.457.16l.88-.7a1.044,1.044,0,0,0,.155-1.465,1.031,1.031,0,0,0-1.457-.155l-.872.7a.9.9,0,0,0-.258.31,1.04,1.04,0,0,0-.992-1.352,1.077,1.077,0,0,0-.655.225l-.87.7a1.068,1.068,0,0,0-.387.7,1.048,1.048,0,0,0,.225.767,1.033,1.033,0,0,0,.807.385,1.019,1.019,0,0,0,.655-.233l.875-.69a1.217,1.217,0,0,0,.255-.3m4.64-.97a1.011,1.011,0,0,0-.642.225l-.88.705a.99.99,0,0,0-.385.695,1.044,1.044,0,0,0,1.682.927l.873-.7a1.032,1.032,0,0,0,.163-1.457,1.011,1.011,0,0,0-.81-.393m1.367.97a1.028,1.028,0,0,0,.635,1.832,1.06,1.06,0,0,0,.547-.147l.175-.108v-2.665Zm-23.094-.29a1.071,1.071,0,0,0-.648.23l-.378.3v2.345l.467-.16a.94.94,0,0,0,.332-.165l.878-.7a1.031,1.031,0,0,0,.157-1.452,1,1,0,0,0-.81-.4m2.532.637a1.055,1.055,0,0,0-.647.225l-.877.7a1.037,1.037,0,1,0,1.295,1.62l.882-.7a1.03,1.03,0,0,0,.158-1.453,1.011,1.011,0,0,0-.81-.392m2.847.295a1.037,1.037,0,0,0-.647.233l-.875.693a1.038,1.038,0,0,0,.645,1.852,1.055,1.055,0,0,0,.647-.225l.88-.695a1.047,1.047,0,0,0,.385-.7,1.049,1.049,0,0,0-1.035-1.158m3.48,1.9a1.141,1.141,0,0,0-.143.425,1.034,1.034,0,0,0,1.032,1.152,1.014,1.014,0,0,0,.645-.23l.88-.693a1.042,1.042,0,0,0-.655-1.852,1.017,1.017,0,0,0-.64.225l-.82.66a1,1,0,0,0,.143-.432,1.018,1.018,0,0,0-.218-.76,1.033,1.033,0,0,0-.81-.393,1.052,1.052,0,0,0-.647.227l-.877.7a1.044,1.044,0,0,0-.165,1.465,1.033,1.033,0,0,0,.81.387,1.073,1.073,0,0,0,.65-.225Zm4.655-1.2a1.058,1.058,0,0,0-.652.225l-.877.7a1.036,1.036,0,0,0,.652,1.845.985.985,0,0,0,.645-.23l.88-.693a1.042,1.042,0,0,0-.648-1.852m3.557,2.037a1.035,1.035,0,0,0,.2.907,1.013,1.013,0,0,0,.81.395,1.047,1.047,0,0,0,.648-.227l.88-.7a1.014,1.014,0,0,0,.38-.7.99.99,0,0,0-.225-.758,1.038,1.038,0,0,0-.8-.387,1.054,1.054,0,0,0-.652.225l-.872.695a1.011,1.011,0,0,0-.247.285,1.013,1.013,0,0,0-.193-.91,1.051,1.051,0,0,0-.81-.4,1.03,1.03,0,0,0-.647.23l-.877.7a1.047,1.047,0,0,0-.163,1.465,1.02,1.02,0,0,0,.807.387,1.073,1.073,0,0,0,.65-.22l.88-.7a1.11,1.11,0,0,0,.24-.283M133,369.173a1.018,1.018,0,0,0-.642.233l-.88.7a1.016,1.016,0,0,0-.385.7,1.041,1.041,0,0,0,.217.76,1.073,1.073,0,0,0,.817.39,1.049,1.049,0,0,0,.647-.225l.873-.707a1.04,1.04,0,0,0-.647-1.85m1.367.97a1.027,1.027,0,0,0-.155,1.458.976.976,0,0,0,.79.38,1.112,1.112,0,0,0,.547-.15l.175-.108V369.06Zm-23.094-.285a1.066,1.066,0,0,0-.648.225l-.378.307v2.34l.467-.153a1.151,1.151,0,0,0,.332-.168l.878-.7a1.036,1.036,0,0,0,.157-1.457,1.012,1.012,0,0,0-.81-.392m2.532.645a1.01,1.01,0,0,0-.647.225l-.877.695a1.051,1.051,0,0,0-.162,1.465,1.024,1.024,0,0,0,.81.39,1,1,0,0,0,.648-.23l.877-.7a1.037,1.037,0,0,0-.647-1.848m2.842.29a1.042,1.042,0,0,0-.643.23l-.875.7a1.037,1.037,0,0,0,1.292,1.622l.88-.7a1.042,1.042,0,0,0-.655-1.855m3.485,1.9a1.026,1.026,0,0,0,.077,1.18,1.04,1.04,0,0,0,.813.39,1.07,1.07,0,0,0,.645-.225l.88-.7a1.04,1.04,0,0,0-.655-1.85,1.024,1.024,0,0,0-.64.23l-.812.64a.986.986,0,0,0,.135-.4,1.042,1.042,0,0,0-.218-.772,1.039,1.039,0,0,0-1.457-.165l-.877.705a1.037,1.037,0,0,0,.645,1.847,1.067,1.067,0,0,0,.65-.225Zm4.655-1.208a1.064,1.064,0,0,0-.652.23l-.877.7a1.031,1.031,0,0,0-.16,1.46,1.04,1.04,0,0,0,1.457.165l.88-.7a1.04,1.04,0,0,0-.648-1.85m3.53,2.182a1.056,1.056,0,0,0,1.035,1.163A1.068,1.068,0,0,0,130,374.6l.88-.7a1.019,1.019,0,0,0,.38-.7,1,1,0,0,0-.225-.762,1.012,1.012,0,0,0-.8-.385,1.024,1.024,0,0,0-.652.225l-.872.7a.946.946,0,0,0-.235.265,1.052,1.052,0,0,0-.2-.872,1.038,1.038,0,0,0-.81-.39,1.063,1.063,0,0,0-.655.228l-.87.7a1.025,1.025,0,0,0-.163,1.457,1.033,1.033,0,0,0,.807.385,1.055,1.055,0,0,0,.655-.225l.875-.7a1.053,1.053,0,0,0,.235-.27c-.01.04-.017.075-.022.107M133,372.518a1.011,1.011,0,0,0-.642.225l-.88.7a1.046,1.046,0,0,0-.167,1.462,1.049,1.049,0,0,0,.817.39,1.06,1.06,0,0,0,.647-.22l.873-.7a1.033,1.033,0,0,0,.163-1.457,1.021,1.021,0,0,0-.81-.395m1.367.963a1.058,1.058,0,0,0-.382.7,1.025,1.025,0,0,0,.228.768.994.994,0,0,0,.79.375,1.11,1.11,0,0,0,.547-.147l.175-.105V372.4Zm-23.094-.285a1.082,1.082,0,0,0-.648.225l-.378.312v2.343l.467-.153a1.158,1.158,0,0,0,.332-.17l.878-.7a1.037,1.037,0,0,0,.157-1.457,1,1,0,0,0-.81-.4m2.532.65a1.03,1.03,0,0,0-.647.23l-.877.7a1.037,1.037,0,1,0,1.295,1.62l.882-.7a1.043,1.043,0,0,0-.652-1.85m2.842.3a1.029,1.029,0,0,0-.643.227l-.875.7a1.034,1.034,0,0,0-.165,1.458,1.021,1.021,0,0,0,.81.387,1.07,1.07,0,0,0,.647-.225l.88-.705a1.036,1.036,0,0,0-.655-1.845m3.472,1.905a1.048,1.048,0,0,0,.09,1.17,1.032,1.032,0,0,0,.813.39,1.019,1.019,0,0,0,.64-.23l.885-.7a1.039,1.039,0,0,0-.655-1.85,1.016,1.016,0,0,0-.64.222l-.812.645a.972.972,0,0,0,.135-.408,1.034,1.034,0,0,0-1.675-.923l-.877.7a1.034,1.034,0,0,0-.165,1.458,1.018,1.018,0,0,0,.81.387,1.089,1.089,0,0,0,.65-.225Zm4.667-1.215a1.056,1.056,0,0,0-.652.222l-.877.7a1.05,1.05,0,0,0-.16,1.465,1.032,1.032,0,0,0,.812.39,1.013,1.013,0,0,0,.645-.23l.88-.7a1.044,1.044,0,0,0,.162-1.46,1.031,1.031,0,0,0-.81-.39m3.547,2.1a1,1,0,0,0,.208.84,1.016,1.016,0,0,0,.81.4,1.092,1.092,0,0,0,.648-.225l.88-.7a1.019,1.019,0,0,0,.38-.7.993.993,0,0,0-.225-.76,1.024,1.024,0,0,0-1.452-.163l-.877.7a1.05,1.05,0,0,0-.23.255,1.024,1.024,0,0,0-.21-.84,1.036,1.036,0,0,0-.81-.388,1.01,1.01,0,0,0-.647.225l-.877.7a1.037,1.037,0,0,0,.645,1.85,1.032,1.032,0,0,0,.65-.225l.88-.7a1,1,0,0,0,.23-.263M133,375.86a1.035,1.035,0,0,0-.647.225l-.875.7a1,1,0,0,0-.385.695,1.039,1.039,0,0,0,.217.758,1.044,1.044,0,0,0,1.465.17l.873-.7a1.037,1.037,0,0,0,.163-1.457,1.016,1.016,0,0,0-.81-.39m1.367.962a1.042,1.042,0,0,0-.382.692,1.049,1.049,0,0,0,1.017,1.15,1.044,1.044,0,0,0,.547-.155l.175-.105v-2.662Zm-23.094-.285a1.056,1.056,0,0,0-.648.23l-.378.3v2.35l.467-.155a.962.962,0,0,0,.332-.175l.878-.7a1.03,1.03,0,0,0,.157-1.452,1.014,1.014,0,0,0-.81-.395m2.532.662a1.011,1.011,0,0,0-.647.225l-.877.7a1.04,1.04,0,0,0,1.295,1.627l.882-.7a1.046,1.046,0,0,0,.158-1.465,1.029,1.029,0,0,0-.81-.387m2.842.283a1.042,1.042,0,0,0-.643.23l-.875.7a1.044,1.044,0,0,0-.165,1.465,1.026,1.026,0,0,0,.81.385,1,1,0,0,0,.647-.23l.88-.7a1.04,1.04,0,0,0-.655-1.85m3.467,1.908a1.047,1.047,0,0,0,.095,1.165,1.032,1.032,0,0,0,.813.39,1.056,1.056,0,0,0,.645-.228l.88-.695a1.037,1.037,0,0,0-.655-1.847.988.988,0,0,0-.64.222l-.805.642a1.058,1.058,0,0,0,.128-.4,1.034,1.034,0,0,0-1.027-1.158,1.024,1.024,0,0,0-.647.23l-.877.7a1.044,1.044,0,0,0-.165,1.465,1.04,1.04,0,0,0,1.46.155Zm4.672-1.215a1.026,1.026,0,0,0-.652.222l-.877.7a1.038,1.038,0,0,0,.652,1.847,1.024,1.024,0,0,0,.645-.228l.88-.695a1.045,1.045,0,0,0,.162-1.46,1.021,1.021,0,0,0-.81-.387m3.542,2.137a1,1,0,0,0,.212.8,1.026,1.026,0,0,0,.81.392,1.045,1.045,0,0,0,.648-.225l.88-.7a1.035,1.035,0,0,0,.38-.7,1.013,1.013,0,0,0-.225-.767,1.046,1.046,0,0,0-.8-.388,1.076,1.076,0,0,0-.647.225l-.877.7a1.06,1.06,0,0,0-.225.247l.005-.045a1,1,0,0,0-.22-.76,1.016,1.016,0,0,0-.81-.4,1.056,1.056,0,0,0-.655.235l-.87.7a1.075,1.075,0,0,0-.387.693,1.041,1.041,0,0,0,1.032,1.152,1.056,1.056,0,0,0,.655-.225l.875-.7a1.259,1.259,0,0,0,.225-.25m6.037-.155a1.028,1.028,0,0,0-.37.84l.007.577,1.72-.88v-1.61ZM133,379.2a1.1,1.1,0,0,0-.647.225l-.875.7a1,1,0,0,0-.385.7,1.048,1.048,0,0,0,.217.76,1.063,1.063,0,0,0,.817.388,1.025,1.025,0,0,0,.647-.225l.873-.7A1.04,1.04,0,0,0,133,379.2m-21.727.683a1.051,1.051,0,0,0-.648.225l-.378.307v2.345l.467-.155a1.166,1.166,0,0,0,.332-.175l.878-.7a1.039,1.039,0,0,0,.157-1.46,1.024,1.024,0,0,0-.81-.39m2.532.662a1.057,1.057,0,0,0-.647.227l-.877.7a1.041,1.041,0,0,0-.162,1.458,1.014,1.014,0,0,0,.81.387,1,1,0,0,0,.648-.225l.877-.695a1.041,1.041,0,0,0,.163-1.465,1.054,1.054,0,0,0-.81-.39m2.842.288a.991.991,0,0,0-.643.233l-.875.7a1.034,1.034,0,0,0,.645,1.845,1.052,1.052,0,0,0,.647-.222l.88-.7a1.039,1.039,0,0,0,.16-1.458,1.028,1.028,0,0,0-.815-.392m3.467,1.922a1.032,1.032,0,0,0,1.547,1.31l.885-.7a1.039,1.039,0,0,0-.655-1.85,1.029,1.029,0,0,0-.64.225l-.8.637a.928.928,0,0,0,.123-.395,1.021,1.021,0,0,0-.218-.758,1.039,1.039,0,0,0-.81-.39.976.976,0,0,0-.647.233l-.877.7a1.022,1.022,0,0,0-.382.69,1.007,1.007,0,0,0,.217.768,1.025,1.025,0,0,0,.81.387,1.081,1.081,0,0,0,.65-.222Zm4.672-1.242a1.034,1.034,0,0,0-.647.225l-.882.705a1.045,1.045,0,0,0,.652,1.852,1.012,1.012,0,0,0,.645-.23l.88-.7a1.039,1.039,0,0,0-.648-1.85m5.68.562a1.022,1.022,0,0,0-.65.23l-.88.7a1.023,1.023,0,0,0-.377.738l-.048.63,2.965-1.508-.155-.312a1.023,1.023,0,0,0-.855-.473m-3.012,0a1.016,1.016,0,0,0-.647.23l-.877.7a1.046,1.046,0,0,0-.163,1.465,1.033,1.033,0,0,0,.807.385,1.076,1.076,0,0,0,.65-.222l.88-.7a1.038,1.038,0,0,0,.16-1.458,1.023,1.023,0,0,0-.81-.39m-16.182,1.145a1.056,1.056,0,0,0-.648.23l-.378.3V386.1l.467-.155a1.093,1.093,0,0,0,.332-.168l.878-.708a1.032,1.032,0,0,0,.157-1.455,1.021,1.021,0,0,0-.81-.395m2.532.675a1.059,1.059,0,0,0-.647.23l-.877.7a1.042,1.042,0,0,0-.162,1.458,1.055,1.055,0,0,0,.815.392,1.025,1.025,0,0,0,.643-.225l.882-.707a1.037,1.037,0,0,0,.158-1.453,1.014,1.014,0,0,0-.81-.395m2.847.288a1.03,1.03,0,0,0-.647.225l-.875.7a1.035,1.035,0,0,0-.165,1.458,1.014,1.014,0,0,0,.81.395,1.044,1.044,0,0,0,.647-.23l.88-.7a1.037,1.037,0,0,0-.65-1.845m2.895,0a1.02,1.02,0,0,0-.647.225l-.877.7a1.035,1.035,0,0,0-.165,1.458,1.01,1.01,0,0,0,.81.395,1.073,1.073,0,0,0,.65-.23l.875-.7a.99.99,0,0,0,.383-.7,1.033,1.033,0,0,0-.218-.765,1.055,1.055,0,0,0-.81-.382m5.48.673a1.1,1.1,0,0,0-.645.22l-.877.7a1.035,1.035,0,0,0-.382.732l-.05.637,3.042-1.56-.278-.34a1.022,1.022,0,0,0-.81-.392m-3.875,2.772a1.043,1.043,0,0,0,.645-.22l.88-.7a1.042,1.042,0,0,0,.16-1.458,1.021,1.021,0,0,0-.807-.392,1.1,1.1,0,0,0-.648.22l-.877.7a1.049,1.049,0,0,0-.165,1.462,1.026,1.026,0,0,0,.812.387m-9.88-1.065a1.1,1.1,0,0,0-.648.225l-.378.312v2.337l.467-.155a1.094,1.094,0,0,0,.332-.167l.878-.7a1.042,1.042,0,0,0,.157-1.462,1.017,1.017,0,0,0-.81-.39m8.275.965a1,1,0,0,0-.647.225l-.877.7a1,1,0,0,0-.373.9l.05.528,2.922-1.485-.175-.327a1.075,1.075,0,0,0-.9-.543m-5.742-.285a1.071,1.071,0,0,0-.647.225l-.877.7a1.039,1.039,0,0,0,.652,1.85.984.984,0,0,0,.643-.225l.882-.7a1.043,1.043,0,0,0-.652-1.855m2.842.285a1.012,1.012,0,0,0-.643.225l-.875.7a1.034,1.034,0,0,0,.645,1.845,1.054,1.054,0,0,0,.647-.225l.88-.7a1.048,1.048,0,0,0,.16-1.465,1.024,1.024,0,0,0-.815-.387m-5.375,2.38a1.058,1.058,0,0,0-.648.218l-.378.312v2.337l.467-.142a1.074,1.074,0,0,0,.332-.183l.878-.7a1.05,1.05,0,0,0,.157-1.457,1.022,1.022,0,0,0-.81-.388m2.532.685a1.057,1.057,0,0,0-.647.227l-.877.7a.989.989,0,0,0-.375.682l-.083.665,3.065-1.558-.29-.347a1.026,1.026,0,0,0-.792-.372m-4.48-37.049,26.764-13.74v42.342l-26.764,13.632Z" transform="translate(595.769 948.145)" fill="#00728a"/>
    <path id="Path_11519" data-name="Path 11519" d="M103.035,346.59a1.163,1.163,0,0,1,2.325,0,1.162,1.162,0,1,1-2.325,0" transform="translate(586.328 956.6)" fill="#00728a"/>
    <path id="Path_11520" data-name="Path 11520" d="M102.553,356.049a1.595,1.595,0,1,1,1.6,1.587,1.6,1.6,0,0,1-1.6-1.587" transform="translate(585.605 970.105)" fill="#00728a"/>
    <path id="Path_11521" data-name="Path 11521" d="M107.277,349.786a1.621,1.621,0,1,1,1.617,1.62,1.616,1.616,0,0,1-1.617-1.62" transform="translate(592.69 960.699)" fill="#00728a"/>
    <path id="Path_11522" data-name="Path 11522" d="M105.235,353.652a3.392,3.392,0,1,1,3.395,3.395,3.395,3.395,0,0,1-3.395-3.395" transform="translate(589.628 963.828)" fill="#00728a"/>
    <path id="Path_11523" data-name="Path 11523" d="M112.547,336.633A13.159,13.159,0,0,0,99.4,349.78v45.289a13.164,13.164,0,0,0,13.142,13.142h45.3a13.165,13.165,0,0,0,13.145-13.142V349.78a13.16,13.16,0,0,0-13.145-13.147Zm45.3,72.811h-45.3a14.388,14.388,0,0,1-14.375-14.375V349.78A14.394,14.394,0,0,1,112.547,335.4h45.3a14.394,14.394,0,0,1,14.375,14.382v45.289a14.388,14.388,0,0,1-14.375,14.375" transform="translate(579.033 941.541)" fill="#00728a"/>
    <path id="Path_11524" data-name="Path 11524" d="M112.547,336.633A13.159,13.159,0,0,0,99.4,349.78v45.289a13.164,13.164,0,0,0,13.142,13.142h45.3a13.165,13.165,0,0,0,13.145-13.142V349.78a13.16,13.16,0,0,0-13.145-13.147Zm45.3,72.811h-45.3a14.388,14.388,0,0,1-14.375-14.375V349.78A14.394,14.394,0,0,1,112.547,335.4h45.3a14.394,14.394,0,0,1,14.375,14.382v45.289a14.388,14.388,0,0,1-14.375,14.375" transform="translate(579.033 941.541)" fill="none" stroke="#00728a" stroke-width="0.5"/>
  </g>
</svg>
