<svg xmlns="http://www.w3.org/2000/svg" width="88.542" height="96.651" viewBox="0 0 88.542 96.651">
  <g id="Group_11490" data-name="Group 11490" transform="translate(0)">
    <g id="Group_11487" data-name="Group 11487">
      <path id="Path_11340" data-name="Path 11340" d="M76.762,121.723a44.3,44.3,0,0,0,2.951,6.683l2.347-1.28a41.29,41.29,0,0,1-2.771-6.277Z" transform="translate(-74.348 -54.743)" fill="#00728a"/>
      <path id="Path_11341" data-name="Path 11341" d="M82.5,127.12l-2.106,1.644a44.267,44.267,0,0,0,4.959,5.369l1.807-1.968a41.749,41.749,0,0,1-4.66-5.045" transform="translate(-71.02 -48.998)" fill="#00728a"/>
      <path id="Path_11342" data-name="Path 11342" d="M80.107,107.167l-2.529-.858A44.081,44.081,0,0,0,75.8,113.4l2.638.433a41.314,41.314,0,0,1,1.663-6.662" transform="translate(-75.224 -68.062)" fill="#00728a"/>
      <path id="Path_11343" data-name="Path 11343" d="M85.993,134.192a44.035,44.035,0,0,0,6.432,3.474l1.073-2.447a41.567,41.567,0,0,1-6.041-3.265Z" transform="translate(-65.891 -44.57)" fill="#00728a"/>
      <path id="Path_11344" data-name="Path 11344" d="M100.421,135.936l.218,2.665a44.66,44.66,0,0,0,7.212-1.2l-.657-2.592a41.655,41.655,0,0,1-6.773,1.13" transform="translate(-52.674 -41.957)" fill="#00728a"/>
      <path id="Path_11345" data-name="Path 11345" d="M92.961,137.409a44.377,44.377,0,0,0,7.212,1.188l.215-2.665a41.375,41.375,0,0,1-6.775-1.115Z" transform="translate(-59.508 -41.947)" fill="#00728a"/>
      <path id="Path_11346" data-name="Path 11346" d="M84.357,101.251l-2.113-1.638a44.522,44.522,0,0,0-3.987,6.126l2.353,1.268a41.928,41.928,0,0,1,3.748-5.756" transform="translate(-72.979 -74.196)" fill="#00728a"/>
      <path id="Path_11347" data-name="Path 11347" d="M78.177,113.807l-2.675,0a44.545,44.545,0,0,0,.613,7.281l2.635-.443a42.149,42.149,0,0,1-.573-6.842" transform="translate(-75.502 -61.194)" fill="#00728a"/>
      <path id="Path_11348" data-name="Path 11348" d="M123.46,113.249a44.031,44.031,0,0,0-1.818-7.08l-2.523.879a41.672,41.672,0,0,1,1.707,6.647Z" transform="translate(-35.547 -68.191)" fill="#00728a"/>
      <path id="Path_11349" data-name="Path 11349" d="M111.875,94.372l-1.456,2.242a41.981,41.981,0,0,1,5.432,4.2l1.8-1.972a44.649,44.649,0,0,0-5.779-4.472" transform="translate(-43.515 -78.997)" fill="#00728a"/>
      <path id="Path_11350" data-name="Path 11350" d="M107.344,135.206l1.077,2.447a44.145,44.145,0,0,0,6.421-3.485l-1.466-2.236a41.44,41.44,0,0,1-6.032,3.275" transform="translate(-46.332 -44.591)" fill="#00728a"/>
      <path id="Path_11351" data-name="Path 11351" d="M113.318,132.145l1.813,1.964a44.655,44.655,0,0,0,4.945-5.376l-2.108-1.644a42.235,42.235,0,0,1-4.65,5.057" transform="translate(-40.86 -49.027)" fill="#00728a"/>
      <path id="Path_11352" data-name="Path 11352" d="M117.707,127.094l2.351,1.276a44.4,44.4,0,0,0,2.941-6.7l-2.533-.866a41.045,41.045,0,0,1-2.759,6.287" transform="translate(-36.839 -54.781)" fill="#00728a"/>
      <path id="Path_11353" data-name="Path 11353" d="M90.135,96.682l-1.47-2.232a44.7,44.7,0,0,0-5.75,4.507l1.818,1.96a41.641,41.641,0,0,1,5.4-4.235" transform="translate(-68.711 -78.926)" fill="#00728a"/>
      <path id="Path_11354" data-name="Path 11354" d="M120.583,113.849a42.126,42.126,0,0,1-.559,6.844l2.638.435a44.765,44.765,0,0,0,.6-7.241v-.222Z" transform="translate(-34.717 -61.324)" fill="#00728a"/>
      <path id="Path_11355" data-name="Path 11355" d="M117.793,99.5l-2.1,1.65a41.685,41.685,0,0,1,3.782,5.733l2.345-1.286a44.481,44.481,0,0,0-4.026-6.1" transform="translate(-38.686 -74.298)" fill="#00728a"/>
      <path id="Path_11356" data-name="Path 11356" d="M110.649,94.5a8.147,8.147,0,1,1-8.147-8.147,8.147,8.147,0,0,1,8.147,8.147" transform="translate(-58.231 -86.348)" fill="#00728a"/>
      <rect id="Rectangle_1372" data-name="Rectangle 1372" width="54.382" height="1.491" transform="translate(17.08 54.227)" fill="#00728a"/>
    </g>
    <text id="START_STOP" data-name="START
STOP" transform="translate(45 50.101)" fill="#00728a" font-size="16" font-family="SegoeUI, Segoe UI"><tspan x="-21" y="0">START</tspan><tspan x="-18" y="22">STOP</tspan></text>
  </g>
</svg>
