<svg xmlns="http://www.w3.org/2000/svg" width="75.5" height="75.5" viewBox="0 0 75.5 75.5">
  <g id="Group_11712" data-name="Group 11712" transform="translate(-1479.75 -1180.688)">
    <g id="Group_11576" data-name="Group 11576" transform="translate(83.632 -90.43)">
      <path id="Path_11677" data-name="Path 11677" d="M414.092,391.118l-.106-9.088-6.216,6.386-2.137-2.072,8.11-8.282.1-10.167-8.3,4.9-3.2,11.69-2.883-.739,2.223-8.648-7.831,4.627-2.1-3.577,7.815-4.629-8.648-2.211.729-2.875,11.216,2.875,7.745-4.338,1.114-.661-8.409-4.713-11.705,3.065-.8-2.876,8.581-2.4-7.921-4.453,2.049-3.624,7.923,4.459-2.4-8.6,2.85-.811,3.128,11.168,7.6,4.533,1.13.635-.1-9.631-8.529-8.615,2.1-2.139,6.374,6.251-.1-9.09,4.167-.041.1,9.082,6.236-6.382,2.119,2.076-8.108,8.284-.106,10.149,8.3-4.9,3.2-11.68,2.885.741-2.207,8.638,7.817-4.633,2.117,3.579-7.813,4.631,8.63,2.224-.729,2.872-11.22-2.872-7.745,4.322-1.108.659,8.4,4.723,11.705-3.063.8,2.874-8.576,2.4,7.915,4.455-2.047,3.632-7.919-4.457,2.395,8.6-2.846.8-3.108-11.158L418,367.859l.1,9.627,8.527,8.615-2.084,2.127-6.392-6.24.108,9.092Z" transform="translate(1017.988 944.592)" fill="#00728a"/>
      <path id="Path_11678" data-name="Path 11678" d="M404.37,369.219a12.129,12.129,0,1,0-12.133-12.129,12.13,12.13,0,0,0,12.133,12.129" transform="translate(1019.341 951.779)" fill="#fff"/>
      <path id="Path_11679" data-name="Path 11679" d="M404.37,369.219a12.129,12.129,0,1,0-12.133-12.129,12.13,12.13,0,0,0,12.133,12.129" transform="translate(1019.341 951.779)" fill="none" stroke="#00728a" stroke-width="1"/>
      <path id="Path_11680" data-name="Path 11680" d="M395.326,351.136l-.923.25-.2-1.089,1.493-.448h.862v6.081h-1.233Z" transform="translate(1021.22 956.448)" fill="#00728a"/>
      <path id="Path_11681" data-name="Path 11681" d="M398.591,351h-2.5v-1.128h3.857v.929l-2.312,5.11h-1.362Z" transform="translate(1023.02 956.469)" fill="#00728a"/>
      <path id="Path_11682" data-name="Path 11682" d="M398.587,351.331v-.037a1.341,1.341,0,1,1,2.674,0v.037a1.341,1.341,0,1,1-2.674,0m1.984-.01V351.3c0-.483-.276-.811-.655-.811s-.649.328-.649.811v.018c0,.475.278.8.649.8s.655-.326.655-.8" transform="translate(1025.405 956.443)" fill="#00728a"/>
      <path id="Path_11683" data-name="Path 11683" d="M400.5,352.976V352.9a2.784,2.784,0,0,1,2.735-3.069,2.546,2.546,0,0,1,1.941.8l-.751.968a1.684,1.684,0,0,0-1.235-.6c-.809,0-1.405.751-1.405,1.923v.025c0,1.2.624,1.933,1.423,1.933a1.7,1.7,0,0,0,1.243-.631l.751.891a2.626,2.626,0,0,1-2.045.9c-1.587,0-2.657-1.216-2.657-3.061" transform="translate(1027.228 956.428)" fill="#00728a"/>
    </g>
    <path id="Path_13159" data-name="Path 13159" d="M302.118,336.639a13.333,13.333,0,0,0-13.322,13.32v45.878a13.337,13.337,0,0,0,13.322,13.325H348a13.334,13.334,0,0,0,13.317-13.325V349.959A13.33,13.33,0,0,0,348,336.639ZM348,410.4H302.118a14.576,14.576,0,0,1-14.56-14.561V349.959a14.581,14.581,0,0,1,14.56-14.561H348a14.578,14.578,0,0,1,14.555,14.561v45.878A14.573,14.573,0,0,1,348,410.4" transform="translate(1192.442 845.541)" fill="#00728a"/>
    <path id="Path_13160" data-name="Path 13160" d="M302.118,336.639a13.333,13.333,0,0,0-13.322,13.32v45.878a13.337,13.337,0,0,0,13.322,13.325H348a13.334,13.334,0,0,0,13.317-13.325V349.959A13.33,13.33,0,0,0,348,336.639ZM348,410.4H302.118a14.576,14.576,0,0,1-14.56-14.561V349.959a14.581,14.581,0,0,1,14.56-14.561H348a14.578,14.578,0,0,1,14.555,14.561v45.878A14.573,14.573,0,0,1,348,410.4" transform="translate(1192.442 845.541)" fill="none" stroke="#00728a" stroke-width="0.5"/>
  </g>
</svg>
