<svg xmlns="http://www.w3.org/2000/svg" width="76.016" height="76.016" viewBox="0 0 76.016 76.016">
  <g id="Group_11584" data-name="Group 11584" transform="translate(-442.002 -1276.688)">
    <path id="Path_11554" data-name="Path 11554" d="M18.841,336.635a13.428,13.428,0,0,0-13.42,13.42v46.207a13.43,13.43,0,0,0,13.42,13.42H65.048a13.433,13.433,0,0,0,13.42-13.42V350.055a13.432,13.432,0,0,0-13.42-13.42Zm46.206,74.279H18.841A14.662,14.662,0,0,1,4.189,396.262V350.055A14.666,14.666,0,0,1,18.841,335.4H65.048A14.675,14.675,0,0,1,79.7,350.055v46.207a14.671,14.671,0,0,1-14.657,14.652" transform="translate(438.063 941.541)" fill="#00728a"/>
    <path id="Path_11555" data-name="Path 11555" d="M18.841,336.635a13.428,13.428,0,0,0-13.42,13.42v46.207a13.43,13.43,0,0,0,13.42,13.42H65.048a13.433,13.433,0,0,0,13.42-13.42V350.055a13.432,13.432,0,0,0-13.42-13.42Zm46.206,74.279H18.841A14.662,14.662,0,0,1,4.189,396.262V350.055A14.666,14.666,0,0,1,18.841,335.4H65.048A14.675,14.675,0,0,1,79.7,350.055v46.207a14.671,14.671,0,0,1-14.657,14.652" transform="translate(438.063 941.541)" fill="none" stroke="#00728a" stroke-width="0.5"/>
    <path id="Path_11556" data-name="Path 11556" d="M45.333,358.453a.67.67,0,0,1-.67.662h-.642v-1.44a.261.261,0,0,0-.257-.26H15.771a.259.259,0,0,0-.255.26v1.44h-.8a.67.67,0,0,1-.67-.662v-8.22a.669.669,0,0,1,.67-.667H44.663a.669.669,0,0,1,.67.667Zm-.67-9.542H14.716a1.322,1.322,0,0,0-1.317,1.323v8.22a1.319,1.319,0,0,0,1.317,1.317h1.447v-1.7h27.2v1.7h1.295a1.319,1.319,0,0,0,1.317-1.317v-8.22a1.322,1.322,0,0,0-1.317-1.323" transform="translate(451.878 961.81)" fill="#00728a"/>
    <path id="Path_11557" data-name="Path 11557" d="M33.466,351.765a4.419,4.419,0,0,1-2.025,1.368,13.6,13.6,0,0,1-3.785.84v2.57a13.649,13.649,0,0,1,3.785.837,4.453,4.453,0,0,1,2.025,1.365v2l4-5.482-4-5.492Z" transform="translate(473.263 963.095)" fill="#00728a"/>
    <path id="Path_11558" data-name="Path 11558" d="M7.922,355.259l4,5.483v-1.995a4.437,4.437,0,0,1,2.027-1.37,13.382,13.382,0,0,1,3.775-.832v-2.572a13.546,13.546,0,0,1-3.775-.84,4.4,4.4,0,0,1-2.027-1.362v-2Z" transform="translate(443.663 963.093)" fill="#00728a"/>
    <path id="Path_11559" data-name="Path 11559" d="M16.034,348.619h3.422a7.563,7.563,0,0,1,2.33,3.455,22.975,22.975,0,0,1,1.435,6.467h4.4a23.072,23.072,0,0,1,1.43-6.467,7.563,7.563,0,0,1,2.33-3.455H34.8l-9.377-6.845Z" transform="translate(455.831 951.104)" fill="#00728a"/>
    <path id="Path_11560" data-name="Path 11560" d="M25.407,353.745H23.212a23.27,23.27,0,0,1-1.43,6.45,7.506,7.506,0,0,1-2.322,3.447H16.045l9.362,6.832,9.36-6.832H31.352a7.542,7.542,0,0,1-2.325-3.447,23.166,23.166,0,0,1-1.43-6.45Z" transform="translate(455.848 969.06)" fill="#00728a"/>
  </g>
</svg>
