<svg xmlns="http://www.w3.org/2000/svg" width="76.023" height="76.016" viewBox="0 0 76.023 76.016">
  <g id="Group_11579" data-name="Group 11579" transform="translate(-1029.794 -1276.688)">
    <path id="Path_11666" data-name="Path 11666" d="M253.971,336.635a13.433,13.433,0,0,0-13.425,13.42v46.207a13.434,13.434,0,0,0,13.425,13.42h46.206a13.437,13.437,0,0,0,13.425-13.42V350.055a13.436,13.436,0,0,0-13.425-13.42Zm46.206,74.279H253.971a14.668,14.668,0,0,1-14.66-14.652V350.055a14.672,14.672,0,0,1,14.66-14.657h46.206a14.675,14.675,0,0,1,14.657,14.657v46.207a14.671,14.671,0,0,1-14.657,14.652" transform="translate(790.733 941.541)" fill="#00728a"/>
    <path id="Path_11667" data-name="Path 11667" d="M253.971,336.635a13.433,13.433,0,0,0-13.425,13.42v46.207a13.434,13.434,0,0,0,13.425,13.42h46.206a13.437,13.437,0,0,0,13.425-13.42V350.055a13.436,13.436,0,0,0-13.425-13.42Zm46.206,74.279H253.971a14.668,14.668,0,0,1-14.66-14.652V350.055a14.672,14.672,0,0,1,14.66-14.657h46.206a14.675,14.675,0,0,1,14.657,14.657v46.207a14.671,14.671,0,0,1-14.657,14.652" transform="translate(790.733 941.541)" fill="none" stroke="#00728a" stroke-width="0.5"/>
    <path id="Path_11668" data-name="Path 11668" d="M258.842,357.308c11.107-3.135,17.47.307,17.815.508a11.644,11.644,0,0,1,1.125,20.165c.007-.008,6.452-3.68,9.372-15.172,2.585-10.177-.725-16.75-1.057-17.377-3.477-6.195-10.3-6.992-16.987-1.175l-21.17,18.412a17.739,17.739,0,0,0-3.672,4.282l0,.013s3.927-6.66,14.57-9.655" transform="translate(798.168 948.905)" fill="#00728a"/>
    <path id="Path_11669" data-name="Path 11669" d="M269.158,375.132c-7.757-7.542-8.4-14.362-8.462-15.512A11.654,11.654,0,0,1,277.59,348.4c-.342-.2-6.71-3.642-17.815-.51-10.645,3-14.57,9.655-14.57,9.655l-.005-.008c-3.607,6.092-.877,12.38,7.492,15.252l26.552,9.1a17.829,17.829,0,0,0,5.555,1.032l.013-.022s-7.73-.06-15.655-7.772" transform="translate(797.234 958.317)" fill="#00728a"/>
    <path id="Path_11670" data-name="Path 11670" d="M284.041,375.164l-5.387-27.522a17.665,17.665,0,0,0-1.857-5.285c.335.625,3.642,7.2,1.057,17.375-2.92,11.5-9.365,15.167-9.372,15.172a11.664,11.664,0,0,1-18.015-8.95c.055,1.147.7,7.975,8.457,15.517,7.927,7.7,15.655,7.777,15.655,7.777l-.01.022c7.082.065,11.165-5.44,9.472-14.107" transform="translate(807.468 951.979)" fill="#00728a"/>
    <path id="Path_11671" data-name="Path 11671" d="M258.842,357.308c11.107-3.135,17.47.307,17.815.508a11.644,11.644,0,0,1,1.125,20.165c.007-.008,6.452-3.68,9.372-15.172,2.585-10.177-.725-16.75-1.057-17.377-3.477-6.195-10.3-6.992-16.987-1.175l-21.17,18.412a17.739,17.739,0,0,0-3.672,4.282l0,.013s3.927-6.66,14.57-9.655" transform="translate(798.168 948.905)" fill="#00728a"/>
    <path id="Path_11672" data-name="Path 11672" d="M268.688,346.583h-.005a32.45,32.45,0,0,0-8.512,1.2.63.63,0,0,1-.062.02l-.185.05c-.05.018-.1.025-.152.045-10.642,3-14.565,9.657-14.565,9.657l-.008-.013a10.3,10.3,0,0,0-1.552,5.25c0,4.192,3.095,7.96,9.045,10l26.552,9.1a17.6,17.6,0,0,0,5.562,1.035l.005-.02s-7.73-.07-15.65-7.775c-7.762-7.542-8.41-14.365-8.465-15.515-.017-.275-.028-.55-.028-.82a11.541,11.541,0,0,1,.632-3.77A11.69,11.69,0,0,1,277.6,348.4h-.008l0-.008a19.194,19.194,0,0,0-8.89-1.812Z" transform="translate(797.236 958.317)" fill="#00728a"/>
    <path id="Path_11673" data-name="Path 11673" d="M267.757,346.583Zm-.008,0a32.511,32.511,0,0,0-8.51,1.2,32.552,32.552,0,0,1,8.51-1.2m-8.51,1.2a.322.322,0,0,1-.062.022.322.322,0,0,0,.063-.022m-.248.072c-.052.015-.1.02-.152.04-10.642,3-14.565,9.66-14.565,9.66l-.007-.008.007.008s3.922-6.663,14.565-9.66c.052-.02.1-.025.152-.04m17.652.545h0l.013.008h.005l-.018-.008" transform="translate(798.168 958.317)" fill="#00728a"/>
    <path id="Path_11674" data-name="Path 11674" d="M284.041,375.164l-5.387-27.522a17.665,17.665,0,0,0-1.857-5.285c.335.625,3.642,7.2,1.057,17.375-2.92,11.5-9.365,15.167-9.372,15.172a11.664,11.664,0,0,1-18.015-8.95c.055,1.147.7,7.975,8.457,15.517,7.927,7.7,15.655,7.777,15.655,7.777l-.01.022c7.082.065,11.165-5.44,9.472-14.107" transform="translate(807.468 951.979)" fill="#00728a"/>
    <path id="Path_11675" data-name="Path 11675" d="M254.058,359.934a4.328,4.328,0,0,0,2.037.532,1.887,1.887,0,0,0,2.077-1.977c0-1.51-1.175-2.135-2.537-2.155h-.38v-2.015h.272c1.005-.025,2.29-.443,2.29-1.76a1.454,1.454,0,0,0-1.575-1.572,3.093,3.093,0,0,0-1.722.545l-.378-2.078a5.821,5.821,0,0,1,2.815-.717,3.327,3.327,0,0,1,1.635,6.355v.048a3.428,3.428,0,0,1,2.332,3.455c0,2.08-1.592,4.11-4.575,4.11a5.676,5.676,0,0,1-2.67-.608Z" transform="translate(812.287 961.548)" fill="#00728a"/>
    <path id="Path_11676" data-name="Path 11676" d="M254.058,359.934a4.328,4.328,0,0,0,2.037.532,1.887,1.887,0,0,0,2.077-1.977c0-1.51-1.175-2.135-2.537-2.155h-.38v-2.015h.272c1.005-.025,2.29-.443,2.29-1.76a1.454,1.454,0,0,0-1.575-1.572,3.093,3.093,0,0,0-1.722.545l-.378-2.078a5.821,5.821,0,0,1,2.815-.717,3.327,3.327,0,0,1,1.635,6.355v.048a3.428,3.428,0,0,1,2.332,3.455c0,2.08-1.592,4.11-4.575,4.11a5.676,5.676,0,0,1-2.67-.608Z" transform="translate(812.287 961.548)" fill="#00728a"/>
  </g>
</svg>
