<svg xmlns="http://www.w3.org/2000/svg" width="62.861" height="54.468" viewBox="0 0 62.861 54.468">
  <g id="Group_11316" data-name="Group 11316" transform="translate(-908.139 -2300)">
    <g id="layers" transform="translate(908.14 2265.816)">
      <g id="Group_11308" data-name="Group 11308" transform="translate(0.001 34.184)">
        <g id="Group_11307" data-name="Group 11307" transform="translate(0 0)">
          <path id="Path_11238" data-name="Path 11238" d="M61.372,46.808,32.41,34.384a2.468,2.468,0,0,0-1.946,0L1.5,46.808a2.468,2.468,0,0,0,.006,4.538L30.47,63.687a2.468,2.468,0,0,0,1.934,0L61.366,51.346a2.468,2.468,0,0,0,.006-4.538ZM31.438,58.734,8.755,49.068l22.683-9.731,22.683,9.731Z" transform="translate(-0.008 -34.184)"/>
        </g>
      </g>
      <g id="Group_11310" data-name="Group 11310" transform="translate(0 71.289)">
        <g id="Group_11309" data-name="Group 11309" transform="translate(0)">
          <path id="Path_11239" data-name="Path 11239" d="M62.661,337.9a2.468,2.468,0,0,0-3.241-1.3L31.43,348.612,3.441,336.605A2.468,2.468,0,1,0,1.5,341.141l28.962,12.425a2.47,2.47,0,0,0,1.947,0l28.962-12.425A2.468,2.468,0,0,0,62.661,337.9Z" transform="translate(0 -336.404)"/>
        </g>
      </g>
      <g id="Group_11312" data-name="Group 11312" transform="translate(0 58.948)">
        <g id="Group_11311" data-name="Group 11311">
          <path id="Path_11240" data-name="Path 11240" d="M62.669,237.389a2.47,2.47,0,0,0-3.238-1.3L31.437,248.016,3.443,236.087a2.468,2.468,0,1,0-1.936,4.541l28.962,12.342a2.47,2.47,0,0,0,1.935,0l28.962-12.342A2.469,2.469,0,0,0,62.669,237.389Z" transform="translate(-0.007 -235.889)" fill="#07a9b1"/>
        </g>
      </g>
    </g>
  </g>
</svg>
