<svg xmlns="http://www.w3.org/2000/svg" width="74.541" height="74.546" viewBox="0 0 74.541 74.546">
  <g id="Group_11583" data-name="Group 11583" transform="translate(-560.016 -1276.688)">
    <path id="Path_11486" data-name="Path 11486" d="M57.373,345.975a2.421,2.421,0,1,0,2.42-2.42,2.426,2.426,0,0,0-2.42,2.42" transform="translate(517.837 953.776)" fill="#00728a"/>
    <path id="Path_11487" data-name="Path 11487" d="M55.423,354.4a2.421,2.421,0,1,0,2.415-2.417,2.418,2.418,0,0,0-2.415,2.417" transform="translate(514.912 966.413)" fill="#00728a"/>
    <path id="Path_11488" data-name="Path 11488" d="M56.882,349.692a1.824,1.824,0,1,0,1.822-1.83,1.825,1.825,0,0,0-1.822,1.83" transform="translate(517.101 960.236)" fill="#00728a"/>
    <path id="Path_11489" data-name="Path 11489" d="M57.881,357.928a1.934,1.934,0,1,0,1.93-1.93,1.934,1.934,0,0,0-1.93,1.93" transform="translate(518.599 972.439)" fill="#00728a"/>
    <path id="Path_11490" data-name="Path 11490" d="M63.625,357.275v11.692l4.2-2.455v-11.69ZM62.455,371V356.6L69,352.785v14.4Z" transform="translate(525.46 967.62)" fill="#00728a"/>
    <path id="Path_11491" data-name="Path 11491" d="M63.625,346.071v11.7l4.2-2.45v-11.7Zm-1.17,13.73V345.4L69,341.594V356Z" transform="translate(525.46 950.834)" fill="#00728a"/>
    <path id="Path_11492" data-name="Path 11492" d="M66.2,344.58v11.7l4.21-2.453V342.12Zm-1.165,13.73V343.9l6.542-3.815v14.417Z" transform="translate(529.326 948.578)" fill="#00728a"/>
    <path id="Path_11493" data-name="Path 11493" d="M63.625,351.786V362.9l4.2-2.46v-11.11Zm-1.17,13.145V351.114l6.545-3.8v13.807Z" transform="translate(525.46 959.406)" fill="#00728a"/>
    <path id="Path_11494" data-name="Path 11494" d="M68.773,343.265v11.7l4.742-2.76V340.5ZM67.611,357V342.59l7.07-4.127v14.422Z" transform="translate(533.193 946.138)" fill="#00728a"/>
    <path id="Path_11495" data-name="Path 11495" d="M60.832,347.885v11.7l4.742-2.763V345.125ZM59.665,361.61V347.215l7.072-4.12v14.4Z" transform="translate(521.275 953.085)" fill="#00728a"/>
    <path id="Path_11496" data-name="Path 11496" d="M60.832,353.6v11.125l4.742-2.765V350.837Zm-1.167,13.155V352.929l7.072-4.122v13.822Z" transform="translate(521.275 961.653)" fill="#00728a"/>
    <path id="Path_11497" data-name="Path 11497" d="M60.832,359.086v11.687l4.742-2.765V356.316Zm-1.167,13.725V358.416l7.072-4.125v14.392Z" transform="translate(521.275 969.878)" fill="#00728a"/>
    <path id="Path_11498" data-name="Path 11498" d="M74.434,348.292a4.552,4.552,0,0,0-3.177,3.413,3.655,3.655,0,0,0,.372,2.8,13.223,13.223,0,0,0,2.8-2.6,6.587,6.587,0,0,0,1.4-2.65,6.183,6.183,0,0,1-1.295,3.163,8.622,8.622,0,0,1-2.487,2.247,5.071,5.071,0,0,0,3.632-1.457c2.215-2.338.887-6.217.887-6.217s-.325.618-2.132,1.3" transform="translate(538.518 958.928)" fill="#00728a"/>
    <path id="Path_11499" data-name="Path 11499" d="M67.183,350.015v.838l.642-.07a5.491,5.491,0,0,0,.522,1.242V350.55H68.34a9.884,9.884,0,0,1-1.157-.535" transform="translate(532.552 963.465)" fill="#00728a"/>
    <path id="Path_11500" data-name="Path 11500" d="M69,359.756l-2.8,1.637v-11.11l4.21-2.45v6.94a5.939,5.939,0,0,0,1.167.655v-9.62l-6.542,3.8v13.815l4.475-2.612A5.492,5.492,0,0,1,69,359.756" transform="translate(529.326 957.156)" fill="#00728a"/>
    <path id="Path_11501" data-name="Path 11501" d="M67.668,352.145a7.181,7.181,0,0,1-.53-1.04l-.05.033a4.311,4.311,0,0,0,.49,1.06Z" transform="translate(532.408 965.1)" fill="#00728a"/>
    <path id="Path_11502" data-name="Path 11502" d="M67.688,352.186a4.262,4.262,0,0,0,.372.338c-.072-.085-.142-.175-.22-.273a5.219,5.219,0,0,1-.482-.762l-.1.047a3.232,3.232,0,0,0,.425.65" transform="translate(532.672 965.675)" fill="#00728a"/>
    <path id="Path_11503" data-name="Path 11503" d="M70.408,352.949v11.32l-4.21,2.453V355.027l3.962-2.31a1.017,1.017,0,0,1-.077-.067,5.089,5.089,0,0,1-.638-.872l-4.412,2.577v14.4l6.54-3.807V353.722a5.8,5.8,0,0,1-1.165-.773" transform="translate(529.326 966.108)" fill="#00728a"/>
    <path id="Path_11504" data-name="Path 11504" d="M67.7,350.25c-.032-.01-.055-.028-.087-.04v1.325a6.366,6.366,0,0,0,.712,1.115l1.5-.88a3.73,3.73,0,0,0-.862-.84l-.185.1v-.248a5.619,5.619,0,0,0-1.078-.532" transform="translate(533.192 963.757)" fill="#00728a"/>
    <path id="Path_11505" data-name="Path 11505" d="M67.611,348.3v9.52c.175.078.325.16.55.24s.4.207.612.3v-9.387l4.742-2.76v11.092l-3.36,1.952a4.965,4.965,0,0,1,.8.892l3.727-2.177v-13.79Z" transform="translate(533.193 954.721)" fill="#00728a"/>
    <path id="Path_11506" data-name="Path 11506" d="M70.9,351.868a4.712,4.712,0,0,1,.563,1.02l2.055-1.2v11.695l-4.737,2.767v-8.85a5.747,5.747,0,0,1-1.167-.447v11.327l7.07-4.127v-14.4Z" transform="translate(533.192 962.922)" fill="#00728a"/>
    <path id="Path_11507" data-name="Path 11507" d="M67.87,351.682c.065.095.112.175.195.278.188.235.378.415.577.622l1.282-.745a3.4,3.4,0,0,0-.547-1.035Z" transform="translate(533.581 964.646)" fill="#00728a"/>
    <path id="Path_11508" data-name="Path 11508" d="M68.016,355.671a5.052,5.052,0,0,0,3.632,1.457,8.427,8.427,0,0,1-2.49-2.242,6.173,6.173,0,0,1-1.3-3.167,6.618,6.618,0,0,0,1.4,2.652,13.012,13.012,0,0,0,2.8,2.6,3.64,3.64,0,0,0,.37-2.8,4.567,4.567,0,0,0-3.177-3.415c-1.807-.685-2.13-1.292-2.13-1.292s-1.332,3.87.89,6.207" transform="translate(531.87 962.639)" fill="#00728a"/>
    <path id="Path_11509" data-name="Path 11509" d="M73.366,352.941A7.573,7.573,0,0,0,72.3,358.7a12.729,12.729,0,0,1,2.555-4.312,9.239,9.239,0,0,1,4.265-2.842,9.826,9.826,0,0,0-3.482,2.842,19.569,19.569,0,0,0-2.99,4.885,5.449,5.449,0,0,0,4.222-.285c2.6-1.07,3.675-3.292,4.075-5.682.472-2.85,1.277-3.517,1.277-3.517a12.257,12.257,0,0,0-1.3-.06c-1.942,0-5.587.4-7.56,3.212" transform="translate(539.974 963.036)" fill="#00728a"/>
    <path id="Path_11510" data-name="Path 11510" d="M73.253,356.389s.647.26,1.512,1.985a4.576,4.576,0,0,0,3.727,2.8,3.633,3.633,0,0,0,2.745-.657A13.005,13.005,0,0,0,78.363,358a6.505,6.505,0,0,0-2.777-1.115,6.118,6.118,0,0,1,3.272.957,8.532,8.532,0,0,1,2.49,2.24,5.042,5.042,0,0,0-1.817-3.45,4.84,4.84,0,0,0-3.017-.95,8.612,8.612,0,0,0-3.26.7" transform="translate(541.656 971.973)" fill="#00728a"/>
    <path id="Path_11511" data-name="Path 11511" d="M71.641,346.409a2.421,2.421,0,1,0,2.42-2.42,2.426,2.426,0,0,0-2.42,2.42" transform="translate(539.238 954.426)" fill="#00728a"/>
    <path id="Path_11512" data-name="Path 11512" d="M70.673,358.624a2.421,2.421,0,1,0,2.42-2.423,2.422,2.422,0,0,0-2.42,2.423" transform="translate(537.787 972.744)" fill="#00728a"/>
    <path id="Path_11513" data-name="Path 11513" d="M63,357.826a1.724,1.724,0,1,0,1.725-1.722A1.723,1.723,0,0,0,63,357.826" transform="translate(526.277 972.597)" fill="#00728a"/>
    <path id="Path_11514" data-name="Path 11514" d="M64.024,346.531a2.62,2.62,0,1,0,2.617-2.623,2.619,2.619,0,0,0-2.617,2.623" transform="translate(527.813 954.305)" fill="#00728a"/>
    <path id="Path_11515" data-name="Path 11515" d="M68.619,343.266a1.727,1.727,0,1,0,1.722-1.732,1.731,1.731,0,0,0-1.722,1.732" transform="translate(534.706 950.743)" fill="#00728a"/>
    <path id="Path_11516" data-name="Path 11516" d="M65.765,336.633A13.155,13.155,0,0,0,52.627,349.78v45.289a13.16,13.16,0,0,0,13.137,13.142h45.3a13.162,13.162,0,0,0,13.145-13.142V349.78a13.156,13.156,0,0,0-13.145-13.147Zm45.3,72.811h-45.3a14.382,14.382,0,0,1-14.37-14.375V349.78A14.389,14.389,0,0,1,65.765,335.4h45.3a14.391,14.391,0,0,1,14.375,14.382v45.289a14.385,14.385,0,0,1-14.375,14.375" transform="translate(508.871 941.541)" fill="#00728a"/>
    <path id="Path_11517" data-name="Path 11517" d="M65.765,336.633A13.155,13.155,0,0,0,52.627,349.78v45.289a13.16,13.16,0,0,0,13.137,13.142h45.3a13.162,13.162,0,0,0,13.145-13.142V349.78a13.156,13.156,0,0,0-13.145-13.147Zm45.3,72.811h-45.3a14.382,14.382,0,0,1-14.37-14.375V349.78A14.389,14.389,0,0,1,65.765,335.4h45.3a14.391,14.391,0,0,1,14.375,14.382v45.289a14.385,14.385,0,0,1-14.375,14.375" transform="translate(508.871 941.541)" fill="none" stroke="#00728a" stroke-width="0.5"/>
  </g>
</svg>
